<?xml version="1.0" encoding="UTF-8"?>
<svg width="24px" height="24px" viewBox="0 0 24 24" version="1.1" xmlns="http://www.w3.org/2000/svg" xmlns:xlink="http://www.w3.org/1999/xlink">
    <title>Pipol Logo</title>
    <g stroke="none" stroke-width="1" fill="none" fill-rule="evenodd">
        <circle fill="#7C3AED" cx="12" cy="12" r="12"></circle>
        <path d="M7,7 L7,17 L9,17 L9,13 L11,13 C13.2091,13 15,11.2091 15,9 C15,6.79086 13.2091,5 11,5 L7,5 L7,7 Z M9,7 L11,7 C12.1046,7 13,7.89543 13,9 C13,10.1046 12.1046,11 11,11 L9,11 L9,7 Z" fill="#FFFFFF" fill-rule="nonzero"></path>
        <path d="M16,5 L16,7 L18,7 L18,17 L16,17 L16,19 L20,19 L20,5 L16,5 Z" fill="#FFFFFF" fill-rule="nonzero"></path>
    </g>
</svg>