<?xml version="1.0" encoding="UTF-8"?>
<svg version="1.1" xmlns="http://www.w3.org/2000/svg" width="500" height="500">
<path d="M0 0 C0.48178711 0.38696045 0.96357422 0.7739209 1.45996094 1.17260742 C1.45996094 1.83260742 1.45996094 2.49260742 1.45996094 3.17260742 C2.04003906 3.4278418 2.62011719 3.68307617 3.21777344 3.94604492 C6.40427962 5.68918593 8.69943768 8.16723011 11.26464844 10.71166992 C14.20574775 12.66891395 15.9758595 12.51444379 19.45996094 12.17260742 C21.41141125 11.73017334 23.35023189 11.22843269 25.27246094 10.67260742 C35.43383209 8.04466661 44.4526592 8.69065099 53.98339844 13.42651367 C59.21851876 16.6180239 63.639373 20.15752767 65.45996094 26.17260742 C66.00640119 31.49904732 65.75132389 36.83742801 65.45996094 42.17260742 C66.30558594 41.86323242 67.15121094 41.55385742 68.02246094 41.23510742 C80.71939158 37.31060159 97.0844618 37.3705225 109.02246094 43.48510742 C110.56152335 44.35329648 112.08526793 45.24977483 113.58496094 46.18432617 C115.54902829 47.40574645 115.54902829 47.40574645 118.45996094 47.17260742 C119.45738813 43.78789546 119.65702142 40.56403122 119.83496094 37.04760742 C120.65808392 26.05215865 123.58705459 15.53561802 131.97949219 7.87182617 C141.20946986 0.81057052 149.76842365 -2.2713673 161.45996094 -0.82739258 C165.90763961 0.56373159 169.59561744 2.59637842 173.45996094 5.17260742 C173.45996094 5.83260742 173.45996094 6.49260742 173.45996094 7.17260742 C174.11996094 7.17260742 174.77996094 7.17260742 175.45996094 7.17260742 C182.53464521 16.55425396 184.42634886 25.6039636 183.45996094 37.17260742 C182.78876046 40.56352778 181.98046187 43.90130359 181.15917969 47.25854492 C179.96462059 52.18851382 179.96462059 52.18851382 180.45996094 57.17260742 C182.86776844 59.61863409 185.45167405 61.5234863 188.45996094 63.17260742 C189.11996094 63.17260742 189.77996094 63.17260742 190.45996094 63.17260742 C194.17432327 55.94710015 197.71460558 48.70977264 200.89746094 41.23510742 C203.27071901 35.69997879 205.82832246 30.30780426 208.64746094 24.98510742 C208.96835693 24.37352783 209.28925293 23.76194824 209.61987305 23.13183594 C212.64838417 17.519746 215.16298965 13.09668198 221.45996094 11.17260742 C221.45996094 10.51260742 221.45996094 9.85260742 221.45996094 9.17260742 C228.46067439 5.95916518 234.01219508 3.65933913 241.70996094 5.79760742 C247.78908949 8.09781823 252.00634271 11.66442877 255.45996094 17.17260742 C259.82674814 27.57418209 256.27062869 37.82618367 252.31933594 47.73510742 C250.05507975 53.23191942 247.55576947 58.6205172 245.07275391 64.02099609 C241.81064911 71.20076459 238.90765653 78.49759374 236.08496094 85.86010742 C235.45992676 87.48988525 235.45992676 87.48988525 234.82226562 89.15258789 C230.15527679 101.19186622 230.15527679 101.19186622 227.27246094 113.73510742 C227.11390625 114.76764648 226.95535156 115.80018555 226.79199219 116.86401367 C226.62763672 118.00676758 226.62763672 118.00676758 226.45996094 119.17260742 C227.61496094 118.82198242 228.76996094 118.47135742 229.95996094 118.11010742 C236.97921516 116.37695823 243.14277037 117.6630571 249.45996094 121.17260742 C255.39017625 126.40598688 259.00620446 132.9128527 259.84277344 140.76635742 C260.0729749 148.43973966 259.48229119 154.54653661 255.45996094 161.17260742 C254.79996094 161.17260742 254.13996094 161.17260742 253.45996094 161.17260742 C253.08677734 162.04079102 253.08677734 162.04079102 252.70605469 162.92651367 C247.90417436 171.58194059 237.99381201 176.3015946 228.85449219 178.91870117 C214.4078981 182.16638511 201.20820735 179.51432054 188.45996094 172.17260742 C187.46996094 171.51260742 186.47996094 170.85260742 185.45996094 170.17260742 C185.45996094 169.51260742 185.45996094 168.85260742 185.45996094 168.17260742 C184.82058594 167.90448242 184.18121094 167.63635742 183.52246094 167.36010742 C181.45996094 166.17260742 181.45996094 166.17260742 180.45996094 163.17260742 C179.79996094 163.17260742 179.13996094 163.17260742 178.45996094 163.17260742 C176.83886719 161.49291992 176.83886719 161.49291992 175.02246094 159.29760742 C172.8759521 156.71067021 171.29219532 155.06076368 168.45996094 153.17260742 C164.14957814 153.49647498 161.01678602 154.78160508 157.20996094 156.73510742 C148.47329942 160.45768494 137.68771265 161.18755553 128.62792969 157.96948242 C126.47375478 157.07334566 124.34365756 156.11445573 122.25683594 155.07104492 C116.44492102 153.20408901 110.6415844 157.43577483 105.43652344 159.95385742 C97.76205233 163.09616055 90.79419649 163.51072926 82.58496094 163.48510742 C81.56015625 163.5012207 80.53535156 163.51733398 79.47949219 163.53393555 C70.76089161 163.53947468 62.74602996 162.27285574 55.45996094 157.17260742 C55.28980469 157.94604492 55.11964844 158.71948242 54.94433594 159.51635742 C52.18225767 171.38741721 48.07294353 179.58831101 38.64746094 187.54760742 C32.76385924 190.54709064 27.15730463 192.03725986 20.70996094 190.04760742 C14.75904472 187.6546464 10.00441736 184.61587978 6.45996094 179.17260742 C2.46830135 169.09841895 6.68135374 159.09805079 9.45996094 149.17260742 C8.7703125 149.14682617 8.08066406 149.12104492 7.37011719 149.09448242 C0.08286144 148.65464806 -6.81554503 147.87093405 -12.20800781 142.51635742 C-16.19278809 137.06937485 -16.25601217 131.7004209 -15.54003906 125.17260742 C-14.335648 120.33190172 -12.72469546 115.67735609 -11.04003906 110.98510742 C-10.61078125 109.74696289 -10.18152344 108.50881836 -9.73925781 107.2331543 C-8.68782262 104.20735747 -7.62127278 101.18785642 -6.54003906 98.17260742 C-7.28987061 98.51831787 -8.03970215 98.86402832 -8.81225586 99.22021484 C-9.7987915 99.67243408 -10.78532715 100.12465332 -11.80175781 100.59057617 C-12.77846436 101.03941162 -13.7551709 101.48824707 -14.76147461 101.95068359 C-23.17493666 105.65065526 -33.6971752 107.12022871 -42.54003906 104.17260742 C-45.96741851 103.71122942 -48.44832125 103.51801606 -51.48144531 105.33666992 C-59.20179667 111.62255099 -59.51422001 119.73386999 -60.54003906 129.17260742 C-60.98218405 133.89716839 -61.39292283 138.62456421 -61.75488281 143.35595703 C-62.56860047 153.27849433 -64.12187404 162.08433067 -71.65722656 169.16088867 C-77.77959827 174.13918082 -83.06740872 176.66292417 -91.02832031 176.50073242 C-96.94048038 175.72838181 -102.60077548 173.46544981 -107.54003906 170.17260742 C-107.54003906 169.51260742 -107.54003906 168.85260742 -107.54003906 168.17260742 C-108.20003906 168.17260742 -108.86003906 168.17260742 -109.54003906 168.17260742 C-116.93171949 159.45421512 -118.01973512 150.18529506 -117.79003906 139.04760742 C-117.77618164 137.9394165 -117.76232422 136.83122559 -117.74804688 135.68945312 C-117.69900541 132.51633134 -117.62470551 129.34495331 -117.54003906 126.17260742 C-117.51683594 125.05426514 -117.51683594 125.05426514 -117.49316406 123.91333008 C-116.63223262 88.28332365 -109.7171784 42.06528116 -85.54003906 14.17260742 C-84.92386719 13.41334961 -84.30769531 12.6540918 -83.67285156 11.87182617 C-62.91787137 -12.92579073 -26.84914298 -16.51682083 0 0 Z " fill="#FBFBF7" transform="translate(179.5400390625,139.827392578125)"/>
<path d="M0 0 C0 0.33 0 0.66 0 1 C-0.63502441 1.01981934 -1.27004883 1.03963867 -1.92431641 1.06005859 C-4.82493326 1.15581122 -7.72487905 1.26528546 -10.625 1.375 C-12.12353516 1.42140625 -12.12353516 1.42140625 -13.65234375 1.46875 C-26.77388483 1.99013574 -38.45461832 7.71015071 -48.0078125 16.7734375 C-51.62721354 20.81865043 -54.34766876 25.28178261 -57 30 C-57.45117188 30.76828125 -57.90234375 31.5365625 -58.3671875 32.328125 C-62.29684651 39.50402406 -64.30177549 47.26238053 -66.45117188 55.10693359 C-66.92622145 56.74551652 -67.49237537 58.35716557 -68.07421875 59.9609375 C-69.27527632 63.90364969 -69.70222449 67.78585983 -70.125 71.875 C-70.21136719 72.65875 -70.29773438 73.4425 -70.38671875 74.25 C-70.5970149 76.16603159 -70.79932744 78.0829366 -71 80 C-70.78085938 78.98164063 -70.56171875 77.96328125 -70.3359375 76.9140625 C-64.745528 51.64094165 -56.97444287 27.12066253 -34.78125 11.69140625 C-25.65696531 6.1425084 -17.2911554 4.78654211 -6.8125 4.6875 C-5.80896484 4.65849609 -4.80542969 4.62949219 -3.77148438 4.59960938 C4.25109128 4.53175415 11.08268108 5.97866299 17.0625 11.625 C19 14 19 14 19 16 C19.66 16 20.32 16 21 16 C21.6509259 17.24735567 22.29551669 18.49801832 22.9375 19.75 C23.47697266 20.79414063 23.47697266 20.79414063 24.02734375 21.859375 C28.75628963 32.26685428 27.04318198 47.89880777 23.25390625 58.25 C21.27742401 62.58471495 18.97797115 66.28582663 16 70 C14.99259766 71.2684375 14.99259766 71.2684375 13.96484375 72.5625 C7.46900988 80.26126607 -0.99247137 87.30249136 -11.375 88.3359375 C-12.57125 88.34882813 -13.7675 88.36171875 -15 88.375 C-16.19625 88.40335937 -17.3925 88.43171875 -18.625 88.4609375 C-22.57806096 87.92105186 -24.23094316 86.8215011 -27 84 C-27 83.34 -27 82.68 -27 82 C-27.66 82 -28.32 82 -29 82 C-29.10864945 79.93867858 -29.18588321 77.87568679 -29.25 75.8125 C-29.29640625 74.66394531 -29.3428125 73.51539063 -29.390625 72.33203125 C-28.91335328 68.2609035 -27.95579482 66.80409012 -25 64 C-22.125 62.5234375 -22.125 62.5234375 -19 61.375 C-11.70186019 58.65644292 -8.42331317 56.05804874 -5.0390625 49.05078125 C-3.15341934 43.5143628 -3.09203889 37.80681714 -3 32 C-3.66 32 -4.32 32 -5 32 C-5.61875 31.21625 -6.2375 30.4325 -6.875 29.625 C-8.98099376 27.0234783 -9.97237344 26.18448279 -13 25 C-17.54495681 24.5967506 -21.82059057 25.3933857 -25.5625 28.0625 C-41.18758966 43.72359217 -44.77230839 74.50687865 -47.65820312 95.52392578 C-48.07142939 98.51745488 -48.51262817 101.50645716 -48.953125 104.49609375 C-50.3273581 113.89918352 -51.67488541 123.30426779 -52.8515625 132.734375 C-52.98304687 133.78278564 -53.11453125 134.83119629 -53.25 135.91137695 C-53.4933683 137.87527674 -53.73070807 139.83993654 -53.9609375 141.80541992 C-55.36243785 153.16445511 -55.36243785 153.16445511 -59.9375 156.75 C-64.40308537 160.03083823 -68.02667109 160.4732288 -73.4296875 160.40234375 C-77.78529987 159.72053817 -80.40086847 157.46550871 -83 154 C-87.20088054 147.68423986 -87.63157858 142.01766202 -87.5 134.5625 C-87.48864014 133.44431885 -87.47728027 132.3261377 -87.46557617 131.17407227 C-86.83654355 102.6767524 -82.4947507 72.88672263 -73 46 C-72.64550781 44.91203125 -72.29101562 43.8240625 -71.92578125 42.703125 C-65.61605492 24.54882467 -54.91122219 10.95565265 -38.0625 1.75 C-26.85398361 -3.51427384 -11.68612687 -3.89537562 0 0 Z " fill="#F1C831" transform="translate(160,144)"/>
<path d="M0 0 C0 0.66 0 1.32 0 2 C1.0828125 2.309375 1.0828125 2.309375 2.1875 2.625 C7.76070486 5.34967793 10.59638872 10.47169405 13 16 C16.23168904 25.80885898 14.63193062 37.80304367 10.55078125 47 C5.75032995 56.28651536 0.04294259 65.30629541 -9 71 C-9.66 71 -10.32 71 -11 71 C-11 71.66 -11 72.32 -11 73 C-17.72212925 75.85181241 -24.71808812 77.33835428 -32 76 C-34.26423722 74.12149314 -35.68700401 72.62599199 -37 70 C-37.27358766 64.43705095 -37.35979203 60.01781096 -33.78125 55.44140625 C-31.39193256 53.50794543 -29.32445046 53.28991429 -26.3125 52.75 C-18.73939493 50.99883406 -14.5690605 47.45217504 -10 41.3125 C-8.483869 36.29031606 -8.26186061 31.19592239 -9 26 C-10.44787322 23.78727899 -10.44787322 23.78727899 -12 22 C-12 21.34 -12 20.68 -12 20 C-16.67482292 18.50405667 -21.35601989 18.45200663 -26 20 C-26 20.66 -26 21.32 -26 22 C-26.99 22.495 -26.99 22.495 -28 23 C-28.495 24.485 -28.495 24.485 -29 26 C-29.66 26 -30.32 26 -31 26 C-37.23229864 41.17429235 -41.90895729 56.95833454 -46.72265625 72.62109375 C-48.89332227 79.6792414 -51.12077236 86.71813982 -53.375 93.75 C-53.85731079 95.25663208 -53.85731079 95.25663208 -54.34936523 96.79370117 C-55.22811502 99.53071074 -56.11336195 102.26553755 -57 105 C-57.27175049 105.85094238 -57.54350098 106.70188477 -57.82348633 107.57861328 C-58.08154053 108.37509277 -58.33959473 109.17157227 -58.60546875 109.9921875 C-58.82871826 110.68683105 -59.05196777 111.38147461 -59.28198242 112.09716797 C-61.04788429 116.77701808 -63.74260103 120.39062644 -68 123 C-71.63782632 124.21260877 -74.17735999 124.39544552 -78 124 C-80.9375 122.25 -80.9375 122.25 -83 119 C-85.530464 106.51226303 -79.33204052 92.1269075 -74.95703125 80.60546875 C-73.07439097 75.48007665 -71.5851519 70.22329567 -70 65 C-66.38727275 53.17097467 -62.48419893 41.52852563 -58 30 C-57.34 30 -56.68 30 -56 30 C-55.95875 29.21625 -55.9175 28.4325 -55.875 27.625 C-53.08059285 16.04817038 -43.68380925 6.71727601 -33.875 0.5 C-22.10563231 -5.99977561 -12.17545979 -4.61472588 0 0 Z " fill="#F1C932" transform="translate(280,194)"/>
<path d="M0 0 C3.25457 1.38464807 6.36090674 2.72181349 8 6 C9.49080098 17.50046468 4.92574427 27.42382227 -0.25 37.4375 C-7.57259295 51.61902826 -12.75823981 66.94940143 -18 82 C-18.50801784 83.42487067 -19.0172003 84.84932647 -19.52734375 86.2734375 C-20.82323852 89.89284192 -22.09216064 93.52089024 -23.34960938 97.15380859 C-23.89105422 98.69074774 -24.46496708 100.21620121 -25.046875 101.73828125 C-27.75339951 109.33442316 -27.2663853 117.04790558 -27 125 C-23.7 125.33 -20.4 125.66 -17 126 C-16.34 124.68 -15.68 123.36 -15 122 C-7.51019296 112.75428384 -7.51019296 112.75428384 -1.9375 111.5625 C3.2549786 112.13944207 6.41547239 114.24563193 10 118 C12.0053321 124.01599631 11.91770118 129.96728596 9.0625 135.6875 C3.51261406 144.51119507 -5.27257653 148.70017159 -14.96875 151.5859375 C-24.02520925 153.43206188 -32.83443645 151.81958649 -40.625 146.9375 C-48.7183239 140.65526956 -51.89613368 132.72072535 -53.29760742 122.91845703 C-55.6358818 100.55954144 -46.0960629 75.20999797 -36.9296875 55.171875 C-36.00618833 53.01445677 -35.26854113 50.8621191 -34.5625 48.625 C-33.18382823 44.34965085 -31.41585017 40.35073415 -29.51171875 36.28515625 C-28.35107634 33.76293335 -27.23509373 31.23600945 -26.14453125 28.68359375 C-13.04661962 -1.83110451 -13.04661962 -1.83110451 0 0 Z " fill="#F1C933" transform="translate(417,157)"/>
<path d="M0 0 C1.8046875 1.328125 1.8046875 1.328125 3 3 C2.9375 6.5625 2.9375 6.5625 2 10 C-0.39669734 12.01322577 -2.65251485 12.11962772 -5.75 12.6875 C-12.53436872 14.39932587 -16.36641604 18.43338232 -20.05859375 24.234375 C-24.94007944 33.12573826 -26.80823605 41.89384637 -25 52 C-23.46102603 55.46368625 -23.46102603 55.46368625 -21 58 C-16.76803263 59.18904219 -12.04037051 58.94170947 -8.01953125 57.0859375 C-6.25148624 55.90546946 -6.25148624 55.90546946 -4 54 C-3.34 54 -2.68 54 -2 54 C-2 53.34 -2 52.68 -2 52 C-1.34 52 -0.68 52 0 52 C0.185625 51.0409375 0.185625 51.0409375 0.375 50.0625 C0.58125 49.381875 0.7875 48.70125 1 48 C1.66 47.67 2.32 47.34 3 47 C8.32711237 36.71241862 10.49407892 25.81406854 9.88964844 14.34326172 C9.69753989 9.43233492 9.69753989 9.43233492 11.35546875 7.0625 C13.79416063 5.48690809 15.13681105 5.53389947 18 6 C23.23030568 8.39722344 25.75587506 11.80236546 28.0859375 16.8984375 C32.35198847 31.37384122 27.54967699 46.07601047 20.68408203 58.83886719 C17.20940342 64.98669662 13.19591631 70.1865479 8 75 C7.35417969 75.60328125 6.70835937 76.2065625 6.04296875 76.828125 C-1.1376428 82.85340394 -10.08028108 84.65911432 -19.3046875 84.34375 C-27.58344684 83.28790823 -34.62459685 79.36626088 -40 73 C-45.88916167 64.44907035 -45.40599816 51.64427811 -43.58984375 41.77001953 C-42.64615478 37.75655494 -41.41563981 33.87405003 -40 30 C-39.34 30 -38.68 30 -38 30 C-37.90847656 29.30519531 -37.81695312 28.61039063 -37.72265625 27.89453125 C-35.16646515 17.65594962 -26.79020496 8.13586068 -18.375 2.125 C-12.09868243 -0.84799253 -6.81978266 -1.74896319 0 0 Z " fill="#F0C932" transform="translate(336,204)"/>
<path d="M0 0 C10.93286835 -0.6277245 10.93286835 -0.6277245 15.1875 1.875 C17.98804803 5.15840113 18.27738819 7.36991298 18.22192383 11.68359375 C17.98721634 14.1334338 17.44171588 16.21782373 16.69921875 18.5625 C16.29050537 19.87444336 16.29050537 19.87444336 15.87353516 21.21289062 C15.58526855 22.13263672 15.29700195 23.05238281 15 24 C14.43624554 25.88465382 13.8750901 27.77008684 13.31640625 29.65625 C12.73200974 31.60423836 12.14737239 33.55215447 11.5625 35.5 C11.27568359 36.46808594 10.98886719 37.43617188 10.69335938 38.43359375 C9.02339009 43.97536266 7.14308197 49.34127617 4.93530273 54.69140625 C4.08366963 56.79347951 3.31464396 58.90232869 2.578125 61.046875 C-1.91994128 73.58854215 -1.91994128 73.58854215 -7.8515625 77.16796875 C-11.69820251 78.65766752 -14.9940277 79.10981396 -19 78 C-22.82573217 75.09244355 -22.82573217 75.09244355 -24 72 C-24.56654808 65.91218337 -22.73494076 60.86087488 -20.109375 55.4765625 C-17.88423538 50.50917336 -16.52299322 45.21625179 -15 40 C-12.16891476 30.33619942 -12.16891476 30.33619942 -10.5 26.125 C-9.20190976 22.80242706 -8.36790234 19.4741139 -7.5625 16 C-6.33122482 10.83912318 -4.57946697 6.62525113 -2 2 C-1.34 2 -0.68 2 0 2 C0 1.34 0 0.68 0 0 Z " fill="#F0C834" transform="translate(199,200)"/>
<path d="M0 0 C1.59412284 3.18824568 1.10174735 6.62896662 1.0625 10.125 C1.05798828 10.87910156 1.05347656 11.63320312 1.04882812 12.41015625 C1.03703499 14.27347127 1.01909942 16.13674555 1 18 C0.34 18 -0.32 18 -1 18 C-0.979375 19.175625 -0.95875 20.35125 -0.9375 21.5625 C-0.9590938 27.67354541 -1.1881379 32.96834203 -5 38 C-5.66 38 -6.32 38 -7 38 C-7.33 39.32 -7.66 40.64 -8 42 C-8.66 42 -9.32 42 -10 42 C-10 42.66 -10 43.32 -10 44 C-14.02442022 47.80532571 -18.26221703 49.38928315 -23.75 49.625 C-27.68282327 49.45069204 -28.61771309 49.34587864 -31.625 46.625 C-35.24142683 39.72091242 -35.58963911 31.30937113 -33.33935547 23.79345703 C-30.18191544 15.6886906 -25.80889025 7.37641102 -18 3 C-12.00101062 0.37424426 -6.4961139 -0.36089522 0 0 Z " fill="#FBFBF9" transform="translate(344,214)"/>
<path d="M0 0 C4.49811678 2.46123371 7.66486998 4.86960995 9.3125 9.8125 C10.01773764 15.83826462 10.38877482 21.18611487 6.6875 26.25 C-1.32907743 35.32537068 -1.32907743 35.32537068 -6.6875 35.8125 C-8.29625 35.9671875 -8.29625 35.9671875 -9.9375 36.125 C-14.61807282 35.73495226 -17.94771818 34.68426304 -21.6875 31.8125 C-25.43089466 27.26170649 -26.39496557 22.12422829 -26.13671875 16.3359375 C-25.09270582 10.47130837 -22.01840625 5.7002782 -17.5625 1.8125 C-11.90924797 -2.12019707 -6.35015594 -2.04496547 0 0 Z " fill="#F0C832" transform="translate(338.6875,153.1875)"/>
<path d="M0 0 C1.8046875 1.328125 1.8046875 1.328125 3 3 C2.9375 6.5625 2.9375 6.5625 2 10 C-0.39669734 12.01322577 -2.65251485 12.11962772 -5.75 12.6875 C-12.51285035 14.39389638 -16.32270852 18.42199981 -20.05859375 24.1640625 C-25.53018982 33.97575768 -25.79534428 42.97880073 -25 54 C-25.66 53.67 -26.32 53.34 -27 53 C-28.2906127 46.61427282 -28.0835853 40.38111343 -27 34 C-29.12364481 33.77390663 -29.12364481 33.77390663 -30.625 35.5 C-31.07875 35.995 -31.5325 36.49 -32 37 C-32.66 35.35 -33.32 33.7 -34 32 C-36.65345977 32.97293525 -37.7897044 33.62368156 -39.1875 36.125 C-40.20992262 39.7428031 -40.56436019 43.26594452 -41 47 C-41.495 47.495 -41.495 47.495 -42 48 C-42.64834999 55.73768508 -42.66778394 62.37962627 -38.77734375 69.23046875 C-38 71 -38 71 -39 74 C-45.18014517 64.17798357 -45.67535037 52.99440162 -43.58544922 41.77441406 C-42.64247141 37.75909376 -41.41626311 33.87575573 -40 30 C-39.34 30 -38.68 30 -38 30 C-37.90847656 29.30519531 -37.81695312 28.61039063 -37.72265625 27.89453125 C-35.16646515 17.65594962 -26.79020496 8.13586068 -18.375 2.125 C-12.09868243 -0.84799253 -6.81978266 -1.74896319 0 0 Z " fill="#F0CB39" transform="translate(336,204)"/>
<path d="M0 0 C0 0.33 0 0.66 0 1 C-0.63502441 1.01981934 -1.27004883 1.03963867 -1.92431641 1.06005859 C-4.82493326 1.15581122 -7.72487905 1.26528546 -10.625 1.375 C-12.12353516 1.42140625 -12.12353516 1.42140625 -13.65234375 1.46875 C-26.77388483 1.99013574 -38.45461832 7.71015071 -48.0078125 16.7734375 C-51.62721354 20.81865043 -54.34766876 25.28178261 -57 30 C-57.45117188 30.76828125 -57.90234375 31.5365625 -58.3671875 32.328125 C-62.29684651 39.50402406 -64.30177549 47.26238053 -66.45117188 55.10693359 C-66.92622145 56.74551652 -67.49237537 58.35716557 -68.07421875 59.9609375 C-69.27527632 63.90364969 -69.70222449 67.78585983 -70.125 71.875 C-70.21136719 72.65875 -70.29773438 73.4425 -70.38671875 74.25 C-70.5970149 76.16603159 -70.79932744 78.0829366 -71 80 C-70.67 78.35 -70.34 76.7 -70 75 C-69.67 75 -69.34 75 -69 75 C-68.97301811 76.62490954 -68.95361243 78.24994633 -68.9375 79.875 C-68.92589844 80.77992188 -68.91429688 81.68484375 -68.90234375 82.6171875 C-69 85 -69 85 -70 87 C-70.66 87 -71.32 87 -72 87 C-72 89.31 -72 91.62 -72 94 C-72.66 94 -73.32 94 -74 94 C-74.20345518 88.25804275 -74.0807829 82.84258235 -73 77.1875 C-71.90489039 71.37733515 -71.91465218 65.82990602 -72.125 59.93359375 C-72 57 -72 57 -70 54 C-70 52.68 -70 51.36 -70 50 C-72.96837781 54.02167317 -74.52389341 57.00088076 -75 62 C-75.66 62 -76.32 62 -77 62 C-76.4549434 55.54891918 -74.8774552 50.03304874 -72.5625 44 C-72.21195557 43.08589355 -71.86141113 42.17178711 -71.50024414 41.22998047 C-64.32342579 23.24481409 -53.90777363 9.19200718 -36.06640625 0.8125 C-25.22534232 -3.45014896 -11.02412485 -3.67470828 0 0 Z " fill="#ECCB4B" transform="translate(160,144)"/>
<path d="M0 0 C3.3737101 2.05056357 6.22043124 4.44086248 8 8 C8.73711239 12.50643711 8.96325851 16.41178556 6.54296875 20.40234375 C3.2109669 24.28149538 0.94758268 26.5535503 -4.26953125 27.34375 C-7.89495466 27.56651027 -10.79738285 27.71117438 -13.98828125 25.82421875 C-17.44091673 22.37158327 -18.4132655 19.28092658 -18.625 14.4375 C-18.34003725 9.6063874 -17.35847612 6.63078499 -14 3 C-9.87023695 -0.5397969 -5.22703485 -1.13282155 0 0 Z " fill="#F0C734" transform="translate(220,162)"/>
<path d="M0 0 C1.10279297 -0.00128906 2.20558594 -0.00257813 3.34179688 -0.00390625 C4.48326172 -0.00003906 5.62472656 0.00382813 6.80078125 0.0078125 C7.95384766 0.00394531 9.10691406 0.00007812 10.29492188 -0.00390625 C11.39384766 -0.00261719 12.49277344 -0.00132812 13.625 0 C14.63006592 0.00112793 15.63513184 0.00225586 16.6706543 0.00341797 C19.11328125 0.1328125 19.11328125 0.1328125 21.11328125 1.1328125 C21.11328125 1.7928125 21.11328125 2.4528125 21.11328125 3.1328125 C22.76328125 3.7928125 24.41328125 4.4528125 26.11328125 5.1328125 C25.45328125 5.4628125 24.79328125 5.7928125 24.11328125 6.1328125 C23.12328125 5.8028125 22.13328125 5.4728125 21.11328125 5.1328125 C4.67740982 3.84640348 -9.52590758 4.74941056 -22.88671875 15.1328125 C-23.57507813 15.65746094 -24.2634375 16.18210938 -24.97265625 16.72265625 C-44.34135871 32.4921937 -50.54996016 60.79122734 -54.88671875 84.1328125 C-55.21671875 84.1328125 -55.54671875 84.1328125 -55.88671875 84.1328125 C-55.74293532 82.15349586 -55.59657101 80.17436666 -55.44921875 78.1953125 C-55.36800781 77.09316406 -55.28679687 75.99101562 -55.203125 74.85546875 C-55.09871094 73.62699219 -54.99429688 72.39851563 -54.88671875 71.1328125 C-54.83773437 70.45420166 -54.78875 69.77559082 -54.73828125 69.07641602 C-54.18722891 62.78359514 -52.6223025 56.96898379 -50.76171875 50.9453125 C-50.44968506 49.9344458 -50.13765137 48.9235791 -49.81616211 47.88208008 C-43.23804369 27.22285756 -32.66696845 12.69020044 -13.4296875 2.26171875 C-8.99484479 0.29294833 -4.81460581 0.00538503 0 0 Z " fill="#FDF9DA" transform="translate(143.88671875,144.8671875)"/>
<path d="M0 0 C2 2 2 2 2.03515625 3.9296875 C0.38583347 7.22833307 -2.21765642 7.77003685 -5.5625 9.125 C-6.76003906 9.62257813 -7.95757812 10.12015625 -9.19140625 10.6328125 C-17.23460109 13.6210828 -24.33513706 14.33915375 -32.875 14.3125 C-33.89980469 14.32861328 -34.92460937 14.34472656 -35.98046875 14.36132812 C-43.41966408 14.36605442 -51.56481834 14.17520805 -57.28076172 8.8918457 C-57.84811035 8.26753662 -58.41545898 7.64322754 -59 7 C-58.32646484 7.01571045 -57.65292969 7.0314209 -56.95898438 7.04760742 C-39.92018419 7.39169362 -24.24324121 7.66568473 -8.6484375 -0.109375 C-5.35241257 -1.21777277 -3.32684206 -0.91325076 0 0 Z " fill="#EEC93B" transform="translate(295,289)"/>
<path d="M0 0 C0.33 1.65 0.66 3.3 1 5 C0.34 5 -0.32 5 -1 5 C-1 5.66 -1 6.32 -1 7 C-1.99 7 -2.98 7 -4 7 C-4 7.66 -4 8.32 -4 9 C-6.31 9 -8.62 9 -11 9 C-11.226875 9.804375 -11.45375 10.60875 -11.6875 11.4375 C-13 14 -13 14 -15.5 14.875 C-18 15 -18 15 -20 14 C-20.33 15.32 -20.66 16.64 -21 18 C-22.32 17.67 -23.64 17.34 -25 17 C-25.33 15.35 -25.66 13.7 -26 12 C-25.34 12 -24.68 12 -24 12 C-23.67 10.02 -23.34 8.04 -23 6 C-21.35 5.67 -19.7 5.34 -18 5 C-17.67 4.01 -17.34 3.02 -17 2 C-16.34 2 -15.68 2 -15 2 C-15 1.34 -15 0.68 -15 0 C-9.96266834 -1.5111995 -5.11828973 -0.64599773 0 0 Z " fill="#F1C832" transform="translate(336,206)"/>
<path d="M0 0 C1.25180279 4.21919103 0.67252421 7.96088565 0.0625 12.25 C-0.03740234 12.99507812 -0.13730469 13.74015625 -0.24023438 14.5078125 C-0.48680156 16.33945442 -0.74250391 18.16986251 -1 20 C0.32 19.67 1.64 19.34 3 19 C2.31665464 22.85287633 1.25839853 26.44378696 0.00390625 30.1484375 C-0.38990234 31.31890625 -0.78371094 32.489375 -1.18945312 33.6953125 C-1.60130859 34.90960938 -2.01316406 36.12390625 -2.4375 37.375 C-5.93414946 47.62084153 -5.93414946 47.62084153 -9 58 C-9.33 58 -9.66 58 -10 58 C-10.30397849 54.04827957 -9.78749601 51.10703462 -8.4375 47.4375 C-7.1633317 43.91269797 -6.70405259 41.65221543 -8 38 C-10.475 40.475 -10.475 40.475 -13 43 C-11.53865777 37.36191367 -10.01168324 31.85624605 -7.88671875 26.42578125 C-6.62891364 22.98482543 -5.53295691 19.49512458 -4.4375 16 C-4.22754395 15.33524658 -4.01758789 14.67049316 -3.80126953 13.9855957 C-2.3621987 9.35952334 -1.14038036 4.7086673 0 0 Z " fill="#FCFAEB" transform="translate(215,216)"/>
<path d="M0 0 C4.49811678 2.46123371 7.66486998 4.86960995 9.3125 9.8125 C9.43154875 11.83079161 9.48771712 13.85323771 9.5 15.875 C9.51417969 16.93847656 9.52835937 18.00195312 9.54296875 19.09765625 C9.3125 21.8125 9.3125 21.8125 7.3125 23.8125 C7.38210938 22.760625 7.38210938 22.760625 7.453125 21.6875 C7.6968966 15.27978944 7.4481569 9.97876788 3.3125 4.8125 C0.73490798 3.24180551 0.73490798 3.24180551 -1.6875 2.8125 C-2.03167969 3.98039063 -2.03167969 3.98039063 -2.3828125 5.171875 C-4.0104133 8.46606106 -5.15298559 8.86866409 -8.5625 10.0625 C-9.42617188 10.37703125 -10.28984375 10.6915625 -11.1796875 11.015625 C-13.33828178 11.70153346 -15.48229243 12.29966103 -17.6875 12.8125 C-17.6875 10.8325 -17.6875 8.8525 -17.6875 6.8125 C-20.93599977 8.53476496 -20.93599977 8.53476496 -21.6875 11.8125 C-22.3475 11.8125 -23.0075 11.8125 -23.6875 11.8125 C-22.43534899 5.96912862 -19.46850896 3.08147494 -14.6875 -0.1875 C-9.46829895 -1.92723368 -5.14359457 -1.65641181 0 0 Z " fill="#EBC944" transform="translate(338.6875,153.1875)"/>
<path d="M0 0 C0.33 0 0.66 0 1 0 C0.93981983 2.25073828 0.85098794 4.50072325 0.75 6.75 C0.68039062 8.62945312 0.68039062 8.62945312 0.609375 10.546875 C-0.09239029 14.52354496 -1.02821625 15.41822853 -4 18 C-9.1730406 26.35306839 -11.7002735 35.34488883 -13 45 C-13.62256028 47.01416562 -14.27566653 49.02015519 -15 51 C-15.66 51 -16.32 51 -17 51 C-16.979375 51.804375 -16.95875 52.60875 -16.9375 53.4375 C-17 56 -17 56 -18 57 C-18.144375 58.093125 -18.28875 59.18625 -18.4375 60.3125 C-18.93371373 63.56545669 -19.54593947 65.18275772 -21 68 C-21.93987954 72.52608659 -22.16404033 76.88313684 -22.1875 81.5 C-22.20167969 82.7684375 -22.21585937 84.036875 -22.23046875 85.34375 C-22.00399026 88.93669692 -21.23370214 91.64239497 -20 95 C-19.875 97.875 -19.875 97.875 -20 100 C-22 99 -22 99 -22.60864258 97.23461914 C-28.06230752 71.17571987 -18.76133777 43.85747792 -7.93359375 20.1796875 C-6.68844817 17.27261121 -5.75396237 14.29556169 -4.79296875 11.28515625 C-3.44947718 7.41351797 -1.72887771 3.71226026 0 0 Z " fill="#EBD063" transform="translate(388,192)"/>
<path d="M0 0 C1.32 0 2.64 0 4 0 C5.80991127 6.78716727 5.43609916 14.17852898 4 21 C3.34 21 2.68 21 2 21 C1.67 22.32 1.34 23.64 1 25 C0.34 25 -0.32 25 -1 25 C-1.33 26.65 -1.66 28.3 -2 30 C-2.99 30.33 -3.98 30.66 -5 31 C-5.33 31.99 -5.66 32.98 -6 34 C-6.69867188 34.09796875 -7.39734375 34.1959375 -8.1171875 34.296875 C-9.02726563 34.44640625 -9.93734375 34.5959375 -10.875 34.75 C-11.77992188 34.88921875 -12.68484375 35.0284375 -13.6171875 35.171875 C-16.15446689 35.76658622 -16.15446689 35.76658622 -17.1953125 38.015625 C-17.46085938 38.67046875 -17.72640625 39.3253125 -18 40 C-18.99 40.495 -18.99 40.495 -20 41 C-20.50604984 47.98629919 -20.0333905 52.20200116 -16 58 C-17.9375 57.1875 -17.9375 57.1875 -20 56 C-20.495 54.515 -20.495 54.515 -21 53 C-21.66 53 -22.32 53 -23 53 C-23.10864945 50.93867858 -23.18588321 48.87568679 -23.25 46.8125 C-23.29640625 45.66394531 -23.3428125 44.51539063 -23.390625 43.33203125 C-22.91335328 39.2609035 -21.95579482 37.80409012 -19 35 C-16.125 33.5234375 -16.125 33.5234375 -13 32.375 C-5.70186019 29.65644292 -2.42331317 27.05804874 0.9609375 20.05078125 C2.84658066 14.5143628 2.90796111 8.80681714 3 3 C2.34 3 1.68 3 1 3 C0.67 2.01 0.34 1.02 0 0 Z " fill="#EBCF5F" transform="translate(154,173)"/>
<path d="M0 0 C0.33 0 0.66 0 1 0 C1.12375 0.969375 1.2475 1.93875 1.375 2.9375 C1.58125 3.948125 1.7875 4.95875 2 6 C2.66 6.33 3.32 6.66 4 7 C4.33 6.34 4.66 5.68 5 5 C4.71410149 6.70930812 4.42098242 8.41740912 4.125 10.125 C3.96257812 11.07632813 3.80015625 12.02765625 3.6328125 13.0078125 C3 16 3 16 1.9453125 18.75390625 C0.66431208 23.15271349 0.70916606 27.25611297 0.75 31.8125 C0.74226563 32.66392578 0.73453125 33.51535156 0.7265625 34.39257812 C0.74749029 41.26212591 1.8294954 47.4884862 4 54 C3.01 54 2.02 54 1 54 C-0.65776005 48.93207265 -1.23859717 44.70534796 -1.1953125 39.31640625 C-1.1924826 38.61603745 -1.18965271 37.91566864 -1.18673706 37.19407654 C-1.17564885 34.9833683 -1.15056703 32.77308329 -1.125 30.5625 C-1.11495546 29.05274028 -1.1058322 27.54297412 -1.09765625 26.03320312 C-1.07574714 22.35533403 -1.04129758 18.6777084 -1 15 C-3.475 19.455 -3.475 19.455 -6 24 C-6.66 24 -7.32 24 -8 24 C-6.36357243 17.58016878 -6.36357243 17.58016878 -4.53125 14.65625 C-2.81908243 11.6861634 -2.081712 9.020752 -1.3125 5.6875 C-1.06113281 4.61886719 -0.80976563 3.55023438 -0.55078125 2.44921875 C-0.27814453 1.23685547 -0.27814453 1.23685547 0 0 Z " fill="#FDF9DF" transform="translate(364,240)"/>
<path d="M0 0 C1.79296875 1.3359375 1.79296875 1.3359375 3 3 C2.9375 6.5625 2.9375 6.5625 2 10 C-1.09166579 12.59699927 -6.14164413 13.06652681 -10 14 C-10.99 14.495 -10.99 14.495 -12 15 C-11.67 13.68 -11.34 12.36 -11 11 C-8.69 11 -6.38 11 -4 11 C-4 10.34 -4 9.68 -4 9 C-3.01 9 -2.02 9 -1 9 C-1 8.34 -1 7.68 -1 7 C-0.34 7 0.32 7 1 7 C0.505 4.525 0.505 4.525 0 2 C-4.95 2 -9.9 2 -15 2 C-15 2.66 -15 3.32 -15 4 C-16.76957906 6.3283935 -17.81583516 6.95288806 -20.6875 7.6875 C-21.8321875 7.8421875 -21.8321875 7.8421875 -23 8 C-23.061875 8.61875 -23.12375 9.2375 -23.1875 9.875 C-24 12 -24 12 -26.5625 13.25 C-27.366875 13.4975 -28.17125 13.745 -29 14 C-29 15.32 -29 16.64 -29 18 C-29.66 18 -30.32 18 -31 18 C-31 18.66 -31 19.32 -31 20 C-31.66 20 -32.32 20 -33 20 C-30.83065287 12.28676578 -23.73962246 5.80971631 -17.04296875 1.83984375 C-11.3593659 -1.09651849 -6.21400798 -1.87317569 0 0 Z " fill="#EAD163" transform="translate(336,204)"/>
<path d="M0 0 C0.33 0.66 0.66 1.32 1 2 C1.99 2 2.98 2 4 2 C3.59201172 2.99193359 3.59201172 2.99193359 3.17578125 4.00390625 C-2.32056793 18.00955349 -5.91538497 32.29735844 -9 47 C-9.33 47 -9.66 47 -10 47 C-9.85621657 45.02068336 -9.70985226 43.04155416 -9.5625 41.0625 C-9.48128906 39.96035156 -9.40007812 38.85820312 -9.31640625 37.72265625 C-9.21199219 36.49417969 -9.10757813 35.26570313 -9 34 C-8.95536621 33.33009033 -8.91073242 32.66018066 -8.86474609 31.9699707 C-8.31355332 25.38165707 -6.49170183 19.3455594 -4.5 13.0625 C-4.17902344 12.02287109 -3.85804687 10.98324219 -3.52734375 9.91210938 C-1.1764872 2.3529744 -1.1764872 2.3529744 0 0 Z " fill="#FCF4C0" transform="translate(98,182)"/>
<path d="M0 0 C7.59 0.33 15.18 0.66 23 1 C23 1.33 23 1.66 23 2 C18.38 2 13.76 2 9 2 C9 2.66 9 3.32 9 4 C19.23 4.33 29.46 4.66 40 5 C40 4.34 40 3.68 40 3 C42.64 3 45.28 3 48 3 C43.29018386 7.70981614 35.52786373 7.27830796 29.25390625 7.32226562 C27.70509766 7.31743164 27.70509766 7.31743164 26.125 7.3125 C25.10019531 7.32861328 24.07539063 7.34472656 23.01953125 7.36132812 C16.41332429 7.36552521 10.03527085 6.90533857 4 4 C2.68 2.68 1.36 1.36 0 0 Z " fill="#E7CE6E" transform="translate(236,296)"/>
<path d="M0 0 C2 1 2 1 3.09765625 4.0546875 C6.51749398 17.25653896 3.7642619 29.44985142 -2.75 41.140625 C-5.4280756 45.550215 -7.66473894 49.0971775 -12 52 C-11.67 50.35 -11.34 48.7 -11 47 C-10.34 47 -9.68 47 -9 47 C-8.67 45.68 -8.34 44.36 -8 43 C-7.34 43 -6.68 43 -6 43 C-6 41.35 -6 39.7 -6 38 C-4.02 37.505 -4.02 37.505 -2 37 C-1.855625 35.865625 -1.71125 34.73125 -1.5625 33.5625 C-1 30 -1 30 0 29 C0.98926519 23.61400065 1.10450333 18.27890016 1.125 12.8125 C1.12959229 12.12341553 1.13418457 11.43433105 1.13891602 10.72436523 C1.12772017 7.02391396 0.88018152 3.59756731 0 0 Z " fill="#EBCD61" transform="translate(290,206)"/>
<path d="M0 0 C2.68228212 1.6997612 4.84736503 3.67432364 7 6 C6.67 6.66 6.34 7.32 6 8 C5.278125 7.34 4.55625 6.68 3.8125 6 C0.78402067 3.8464147 -0.39703406 3.58823246 -4 4 C-4 4.66 -4 5.32 -4 6 C-4.66 6 -5.32 6 -6 6 C-6.33 6.99 -6.66 7.98 -7 9 C-10.0625 10.1875 -10.0625 10.1875 -13 11 C-13.33 10.01 -13.66 9.02 -14 8 C-14.99 8.33 -15.98 8.66 -17 9 C-16.06026802 5.61696486 -15.0726148 4.06553043 -12.4375 1.6875 C-8.10947551 -0.43716657 -4.73031634 -1.12938349 0 0 Z " fill="#ECCB48" transform="translate(220,162)"/>
<path d="M0 0 C1.22846607 3.6853982 0.63448589 5.2669886 -0.328125 9.00390625 C-0.63210205 10.21103271 -0.9360791 11.41815918 -1.24926758 12.66186523 C-1.4129483 13.29889374 -1.57662903 13.93592224 -1.74526978 14.59225464 C-4.74949222 26.31942103 -7.30219373 38.00774865 -9 50 C-9.20513853 51.39982627 -9.41086808 52.79956605 -9.6171875 54.19921875 C-10.09154593 57.46449423 -10.55325175 60.730854 -11 64 C-11.33 64 -11.66 64 -12 64 C-12.2046463 57.5536415 -11.80698539 51.33269657 -11.0625 44.9375 C-10.97564941 44.1751001 -10.88879883 43.4127002 -10.79931641 42.62719727 C-10.12744926 37.12744926 -10.12744926 37.12744926 -9 36 C-8.86526968 34.37724819 -8.76812582 32.75133796 -8.6875 31.125 C-8.2673608 25.88003644 -6.91532733 21.64284413 -4.98046875 16.78125 C-3.65382792 13.01802978 -3.05352005 9.25328359 -2.4921875 5.3125 C-2 3 -2 3 0 0 Z " fill="#E5CA53" transform="translate(121,192)"/>
<path d="M0 0 C3.80197246 3.28352167 4.8821439 6.6025634 5.30078125 11.56640625 C5.34595978 26.97228643 2.05177832 42.59076989 -8.40332031 54.61376953 C-9.56582234 55.77995814 -10.7777853 56.89655174 -12 58 C-11.67 56.35 -11.34 54.7 -11 53 C-10.34 53 -9.68 53 -9 53 C-9 52.01 -9 51.02 -9 50 C-8.34 50 -7.68 50 -7 50 C-6.896875 49.484375 -6.79375 48.96875 -6.6875 48.4375 C-5.75736134 45.13973565 -4.38604488 42.13366668 -3 39 C-2.34 39 -1.68 39 -1 39 C-0.78537109 37.89591797 -0.78537109 37.89591797 -0.56640625 36.76953125 C-0.23209364 35.13485787 0.12556098 33.50417159 0.53515625 31.88671875 C1.82971184 26.48794246 2.21385301 21.27795311 2.25 15.75 C2.26365601 14.74005981 2.26365601 14.74005981 2.27758789 13.7097168 C2.25163851 9.42489221 1.49026863 5.99770474 0 2 C0 1.34 0 0.68 0 0 Z " fill="#E9CB5E" transform="translate(360,216)"/>
<path d="M0 0 C0.70382813 -0.00064453 1.40765625 -0.00128906 2.1328125 -0.00195312 C7.1312047 0.04895643 11.39967386 0.61239129 16.125 2.1875 C16.125 2.5175 16.125 2.8475 16.125 3.1875 C15.48997559 3.20731934 14.85495117 3.22713867 14.20068359 3.24755859 C11.30006674 3.34331122 8.40012095 3.45278546 5.5 3.5625 C4.00146484 3.60890625 4.00146484 3.60890625 2.47265625 3.65625 C-2.66780433 3.86050671 -7.05559644 4.2103088 -11.875 6.1875 C-13.20411682 6.53726758 -14.53582739 6.87846017 -15.875 7.1875 C-15.875 6.1975 -15.875 5.2075 -15.875 4.1875 C-16.4525 4.538125 -17.03 4.88875 -17.625 5.25 C-20.27286506 6.35327711 -21.20685326 5.98906509 -23.875 5.1875 C-22.33663292 4.53384601 -20.79411234 3.88996397 -19.25 3.25 C-18.39148438 2.89035156 -17.53296875 2.53070313 -16.6484375 2.16015625 C-11.17169236 0.23943859 -5.75997457 -0.00545452 0 0 Z " fill="#EBCE56" transform="translate(143.875,141.8125)"/>
<path d="M0 0 C0 0.66 0 1.32 0 2 C0.721875 2.20625 1.44375 2.4125 2.1875 2.625 C5.97218384 4.47528988 7.52258653 6.60240438 10 10 C10 10.66 10 11.32 10 12 C9.01 12 8.02 12 7 12 C6.505 11.01 6.505 11.01 6 10 C5.34 10 4.68 10 4 10 C3.731875 9.21625 3.46375 8.4325 3.1875 7.625 C2.15185568 4.71885077 2.15185568 4.71885077 -1 3 C-2.9896995 2.60986284 -4.99019869 2.26797351 -7 2 C-7 1.01 -7 0.02 -7 -1 C-14.26 -1 -21.52 -1 -29 -1 C-18.75193384 -6.12403308 -10.39746173 -3.94083152 0 0 Z " fill="#ECCE58" transform="translate(280,194)"/>
<path d="M0 0 C0.33 0 0.66 0 1 0 C1.05406122 1.93719378 1.09282025 3.87481921 1.125 5.8125 C1.14820313 6.89144531 1.17140625 7.97039062 1.1953125 9.08203125 C1 12 1 12 -1 15 C-1.66 15 -2.32 15 -3 15 C-3.66 18.96 -4.32 22.92 -5 27 C-3.02 27.66 -1.04 28.32 1 29 C1.66 28.34 2.32 27.68 3 27 C3 28.32 3 29.64 3 31 C6.465 30.505 6.465 30.505 10 30 C8.37336275 31.94264002 7.4103239 32.90087681 4.9140625 33.50390625 C0.44262321 33.61836289 -1.45300694 33.41571472 -5.125 30.625 C-7.58648202 27.0051735 -7.31144426 23.78409445 -6.65625 19.58203125 C-5.80539848 16.23433567 -4.5051507 13.27800743 -2.98828125 10.18359375 C-1.49198862 6.87755589 -0.77203791 3.53850708 0 0 Z " fill="#E9D06D" transform="translate(182,245)"/>
<path d="M0 0 C1.10601562 -0.00580078 1.10601562 -0.00580078 2.234375 -0.01171875 C7.7466804 -0.0016598 7.7466804 -0.0016598 10 1.125 C10 2.115 10 3.105 10 4.125 C9.01 3.795 8.02 3.465 7 3.125 C1.9714302 1.71007854 -2.77384971 1.1413522 -7.6875 3.3125 C-12.37467929 6.98623512 -15.96201423 10.44009233 -18 16.125 C-18.63966582 22.16184616 -17.98502854 27.41804296 -16 33.125 C-19 32.125 -19 32.125 -20.1875 30.1875 C-22.5399103 21.32072271 -20.52307638 14.95775571 -16.80078125 6.71484375 C-15 4.125 -15 4.125 -12.29296875 3.25390625 C-11.53628906 3.21136719 -10.77960938 3.16882813 -10 3.125 C-10 2.465 -10 1.805 -10 1.125 C-6.84150315 -0.45424842 -3.4634872 -0.01816514 0 0 Z " fill="#FEF7D6" transform="translate(332,150.875)"/>
<path d="M0 0 C0.66 0.33 1.32 0.66 2 1 C2 6.94 2 12.88 2 19 C2.66 18.67 3.32 18.34 4 18 C4.33 17.01 4.66 16.02 5 15 C5.66 15 6.32 15 7 15 C6.34 17.31 5.68 19.62 5 22 C4.34 22 3.68 22 3 22 C2.87882812 22.67546875 2.75765625 23.3509375 2.6328125 24.046875 C2.46523438 24.93890625 2.29765625 25.8309375 2.125 26.75 C1.96257812 27.63171875 1.80015625 28.5134375 1.6328125 29.421875 C1.03203736 31.86947744 0.22002883 33.80599857 -1 36 C-1.66 35.01 -2.32 34.02 -3 33 C-3.33 33.99 -3.66 34.98 -4 36 C-4.66 36 -5.32 36 -6 36 C-4.3591501 29.71007539 -4.3591501 29.71007539 -2.9765625 26.9765625 C1.27455425 18.38387971 0.34528845 9.34197095 0 0 Z " fill="#FDF7D2" transform="translate(293,212)"/>
<path d="M0 0 C3.33131025 2.01135713 5.14984455 3.79926993 7.3125 7 C6.9825 7.66 6.6525 8.32 6.3125 9 C5.9825 8.01 5.6525 7.02 5.3125 6 C2.84119082 4.84478498 2.84119082 4.84478498 0.3125 4 C-0.0175 3.67 -0.3475 3.34 -0.6875 3 C-3.02047433 2.95907063 -5.35455225 2.95758277 -7.6875 3 C-7.64109375 4.12535156 -7.5946875 5.25070313 -7.546875 6.41015625 C-7.24965918 17.01936774 -8.35009514 25.89839064 -11.6875 36 C-12.99410357 31.70272603 -12.3471762 28.39784135 -11.6875 24 C-11.0275 24 -10.3675 24 -9.6875 24 C-10.0175 16.74 -10.3475 9.48 -10.6875 2 C-3.6875 -1 -3.6875 -1 0 0 Z " fill="#FEF8D6" transform="translate(354.6875,208)"/>
<path d="M0 0 C2.2995312 1.79192192 2.95009395 2.71927847 3.46875 5.63671875 C3.54078564 12.66919805 2.82883237 17.65901874 -2 23 C-2.66 23.33 -3.32 23.66 -4 24 C-4.67991311 20.97068416 -5.14369457 18.10996104 -5 15 C-3.35830472 12.97945196 -1.69088222 10.97956942 0 9 C0.43250515 5.95234742 0.30561814 3.05618141 0 0 Z " fill="#FCF8DE" transform="translate(269,217)"/>
<path d="M0 0 C0.66 0.66 1.32 1.32 2 2 C1.8984375 3.984375 1.8984375 3.984375 1 6 C-0.9609375 7.265625 -0.9609375 7.265625 -3.375 8.25 C-4.16648437 8.58515625 -4.95796875 8.9203125 -5.7734375 9.265625 C-8 10 -8 10 -11 10 C-11 9.34 -11 8.68 -11 8 C-9.68 8 -8.36 8 -7 8 C-7 7.34 -7 6.68 -7 6 C-5.35 5.34 -3.7 4.68 -2 4 C-2 3.34 -2 2.68 -2 2 C-5.4797021 2.42435392 -8.20622838 3.08999057 -11.4375 4.5 C-15.03323458 6.01399351 -18.14853369 6.53782404 -22 7 C-22.33 7.33 -22.66 7.66 -23 8 C-24.85287502 8.07226502 -26.70833878 8.0838122 -28.5625 8.0625 C-29.57441406 8.05347656 -30.58632813 8.04445313 -31.62890625 8.03515625 C-32.41136719 8.02355469 -33.19382812 8.01195312 -34 8 C-34 7.67 -34 7.34 -34 7 C-32.47632813 6.76216797 -32.47632813 6.76216797 -30.921875 6.51953125 C-22.93978804 5.19210299 -15.96395606 3.5379036 -8.6484375 -0.109375 C-5.35241257 -1.21777277 -3.32684206 -0.91325076 0 0 Z " fill="#EBD166" transform="translate(295,289)"/>
<path d="M0 0 C0.33 0 0.66 0 1 0 C0.70728508 5.66942586 0.36806694 11.33496974 0 17 C-0.06445312 17.99515625 -0.12890625 18.9903125 -0.1953125 20.015625 C-0.40772839 23.17826154 -0.63909981 26.3390351 -0.875 29.5 C-0.94122559 30.50160156 -1.00745117 31.50320313 -1.07568359 32.53515625 C-1.56102703 38.75251944 -2.71104283 44.19333431 -5 50 C-5.86933898 47.09215563 -6.0459314 44.86645107 -5.67041016 41.86157227 C-5.57345856 41.05716202 -5.47650696 40.25275177 -5.37661743 39.42396545 C-5.2652243 38.56347092 -5.15383118 37.70297638 -5.0390625 36.81640625 C-4.929039 35.92388657 -4.8190155 35.03136688 -4.70565796 34.11180115 C-4.47189431 32.22604525 -4.23463733 30.34071958 -3.99414062 28.45581055 C-3.62691535 25.57751247 -3.26951112 22.69813318 -2.9140625 19.81835938 C-2.68546775 17.98430363 -2.45631938 16.15031678 -2.2265625 14.31640625 C-2.11921783 13.45793594 -2.01187317 12.59946564 -1.90127563 11.71498108 C-1.397506 7.77500926 -0.85707676 3.88254783 0 0 Z " fill="#FDF5CF" transform="translate(111,242)"/>
<path d="M0 0 C0.33 0.66 0.66 1.32 1 2 C0.71382813 2.84820312 0.42765625 3.69640625 0.1328125 4.5703125 C-1.22211627 8.67247616 -1.68249311 12.59501532 -2.125 16.875 C-2.21136719 17.65875 -2.29773438 18.4425 -2.38671875 19.25 C-2.5970149 21.16603159 -2.79932744 23.0829366 -3 25 C-2.67 23.35 -2.34 21.7 -2 20 C-1.67 20 -1.34 20 -1 20 C-0.97301811 21.62490954 -0.95361243 23.24994633 -0.9375 24.875 C-0.92589844 25.77992188 -0.91429688 26.68484375 -0.90234375 27.6171875 C-1 30 -1 30 -2 32 C-2.66 32 -3.32 32 -4 32 C-4 34.31 -4 36.62 -4 39 C-4.66 39 -5.32 39 -6 39 C-6.24268263 32.15095679 -5.75636139 25.81722511 -4.51171875 19.08203125 C-3.68182659 14.08367314 -3.34037563 9.051891 -3 4 C-2.34 4 -1.68 4 -1 4 C-0.67 2.68 -0.34 1.36 0 0 Z " fill="#EFCF57" transform="translate(92,199)"/>
<path d="M0 0 C0.33 0 0.66 0 1 0 C1.29189293 7.67678418 0.19161268 15.09639485 -0.875 22.6875 C-1.04902344 23.99267578 -1.22304687 25.29785156 -1.40234375 26.64257812 C-1.57636719 27.89876953 -1.75039062 29.15496094 -1.9296875 30.44921875 C-2.08679199 31.58705811 -2.24389648 32.72489746 -2.40576172 33.8972168 C-2.96568399 36.82082082 -3.79004489 39.28915604 -5 42 C-5.33 42 -5.66 42 -6 42 C-6.04241723 39.66705225 -6.04092937 37.33297433 -6 35 C-5.505 34.505 -5.505 34.505 -5 34 C-4.72433134 32.00210878 -4.50785562 29.9959938 -4.31640625 27.98828125 C-4.19330078 26.75529297 -4.07019531 25.52230469 -3.94335938 24.25195312 C-3.69135998 21.64537482 -3.44132935 19.03860535 -3.19335938 16.43164062 C-3.00676758 14.57249023 -3.00676758 14.57249023 -2.81640625 12.67578125 C-2.70756104 11.54052002 -2.59871582 10.40525879 -2.48657227 9.2355957 C-1.99587309 5.97255701 -1.13604339 3.09189685 0 0 Z " fill="#E9CD63" transform="translate(108,256)"/>
<path d="M0 0 C1.00353516 -0.02900391 2.00707031 -0.05800781 3.04101562 -0.08789062 C9.72105025 -0.14439059 15.08344263 0.71516688 20.8125 4.3125 C23.375 7.0625 23.375 7.0625 24.8125 9.3125 C23.1625 9.3125 21.5125 9.3125 19.8125 9.3125 C19.8125 8.3225 19.8125 7.3325 19.8125 6.3125 C18.8225 5.9825 17.8325 5.6525 16.8125 5.3125 C16.8125 4.6525 16.8125 3.9925 16.8125 3.3125 C9.3673685 2.24665403 2.25015127 2.37347769 -5.25 2.75 C-6.40177734 2.80220703 -7.55355469 2.85441406 -8.74023438 2.90820312 C-11.55634135 3.03673913 -14.37198692 3.1716445 -17.1875 3.3125 C-12.77407248 -1.10092752 -5.85478068 0.05533819 0 0 Z " fill="#E9CC55" transform="translate(153.1875,148.6875)"/>
<path d="M0 0 C0.33 0 0.66 0 1 0 C0.14424307 9.06201549 -0.9565551 18.09101285 -2.0625 27.125 C-2.25074911 28.66925888 -2.4389009 30.21352963 -2.62695312 31.7578125 C-3.08351416 35.50534601 -3.54138964 39.25271675 -4 43 C-4.33 43 -4.66 43 -5 43 C-5.56360806 28.2835674 -4.69308988 14.07926965 0 0 Z " fill="#FDF5CC" transform="translate(78,221)"/>
<path d="M0 0 C0.33 0 0.66 0 1 0 C1.05506505 1.52040718 1.09326375 3.04142704 1.125 4.5625 C1.14820312 5.40941406 1.17140625 6.25632813 1.1953125 7.12890625 C0.95756161 10.62384439 -0.00318404 13.6438139 -1 17 C-1.53834802 19.6459805 -2.04313701 22.27811578 -2.5 24.9375 C-2.62673096 25.66316162 -2.75346191 26.38882324 -2.8840332 27.13647461 C-4.17750963 34.72612569 -5.12510222 42.35236412 -6 50 C-6.33 50 -6.66 50 -7 50 C-6.72088005 39.85398977 -5.67713424 29.9610726 -4.0625 19.9375 C-3.89266602 18.87990479 -3.72283203 17.82230957 -3.54785156 16.73266602 C-2.60600498 11.07396203 -1.48353309 5.54162809 0 0 Z " fill="#EACF63" transform="translate(82,206)"/>
<path d="M0 0 C0.33 0 0.66 0 1 0 C1.33 3.63 1.66 7.26 2 11 C2.66 11 3.32 11 4 11 C4 11.66 4 12.32 4 13 C4.66 13 5.32 13 6 13 C6 13.66 6 14.32 6 15 C7.65 14.34 9.3 13.68 11 13 C11.33 13.99 11.66 14.98 12 16 C13.98 16 15.96 16 18 16 C18 14.68 18 13.36 18 12 C19.65 12 21.3 12 23 12 C20.12381062 15.86797883 18.60624074 17.60525097 13.73046875 18.34375 C10.10504534 18.56651027 7.20261715 18.71117438 4.01171875 16.82421875 C0.37281108 13.18531108 -0.34863892 10.16336859 -0.375 5.0625 C-0.2795008 3.37307372 -0.16445227 1.68411303 0 0 Z " fill="#E9CC5D" transform="translate(202,171)"/>
<path d="M0 0 C0.66 0.33 1.32 0.66 2 1 C1.01 1.33 0.02 1.66 -1 2 C-1 2.66 -1 3.32 -1 4 C-5.47058824 8 -5.47058824 8 -8 8 C-8.2475 8.5775 -8.495 9.155 -8.75 9.75 C-10.18527083 12.3334875 -11.85147394 13.97785783 -14 16 C-15.051875 17.11375 -15.051875 17.11375 -16.125 18.25 C-18 20 -18 20 -20 20 C-17.06894427 10.98136698 -8.18000907 4.23607612 0 0 Z " fill="#EBCE5E" transform="translate(249,193)"/>
<path d="M0 0 C0.5534764 2.07553648 1 3.84365964 1 6 C1.495 6.495 1.99 6.99 2.5 7.5 C2.995 7.995 3.49 8.49 4 9 C4 9.66 4 10.32 4 11 C3.34 11 2.68 11 2 11 C1.443125 10.319375 0.88625 9.63875 0.3125 8.9375 C-1.90440074 6.6588207 -1.90440074 6.6588207 -5.1875 7 C-8.98511147 7.99609481 -12.18177718 9.40450258 -15.7109375 11.078125 C-19.13772036 12.45819455 -22.32902921 12.73302031 -26 13 C-22.90576832 9.90576832 -19.4476188 9.06293995 -15.125 8.875 C-14.42375 8.91625 -13.7225 8.9575 -13 9 C-12.835 8.38125 -12.67 7.7625 -12.5 7.125 C-10.41092968 4.16548372 -8.34385746 4.1956319 -4.91015625 3.50390625 C-2.58430496 2.89033812 -1.41001667 1.93877292 0 0 Z " fill="#FCF8D8" transform="translate(295,282)"/>
<path d="M0 0 C0.33 0 0.66 0 1 0 C1 10.56 1 21.12 1 32 C1.66 32.33 2.32 32.66 3 33 C2.505 35.475 2.505 35.475 2 38 C-0.96226394 34.72097913 -1.36829631 32.57625674 -1.328125 28.203125 C-1.32296875 27.0790625 -1.3178125 25.955 -1.3125 24.796875 C-1.291875 23.62640625 -1.27125 22.4559375 -1.25 21.25 C-1.24484375 20.095 -1.2396875 18.94 -1.234375 17.75 C-1.17958799 11.75082253 -0.90579956 5.93152612 0 0 Z " fill="#ECD068" transform="translate(74,256)"/>
<path d="M0 0 C0.66 0 1.32 0 2 0 C1.31665464 3.85287633 0.25839853 7.44378696 -0.99609375 11.1484375 C-1.58680664 12.90414062 -1.58680664 12.90414062 -2.18945312 14.6953125 C-2.60130859 15.90960938 -3.01316406 17.12390625 -3.4375 18.375 C-6.93414946 28.62084153 -6.93414946 28.62084153 -10 39 C-10.33 39 -10.66 39 -11 39 C-11.22937511 34.28347435 -10.46206455 30.6025727 -9 26.125 C-8.62875 24.97257812 -8.2575 23.82015625 -7.875 22.6328125 C-7.58625 21.76398438 -7.2975 20.89515625 -7 20 C-6.34 20 -5.68 20 -5 20 C-4.8453125 18.63875 -4.8453125 18.63875 -4.6875 17.25 C-2.60881295 2.60881295 -2.60881295 2.60881295 0 0 Z " fill="#FEF8D2" transform="translate(216,235)"/>
<path d="M0 0 C0.70125 0.825 1.4025 1.65 2.125 2.5 C6.42544545 6.12304832 11.26680677 5.49584167 16.62890625 5.30859375 C20.38135485 4.96509034 23.49058024 4.33692181 27 3 C26.0859375 5.47265625 26.0859375 5.47265625 24 8 C20.87245227 8.71408421 17.81639713 8.55969313 14.625 8.4375 C13.77421875 8.43169922 12.9234375 8.42589844 12.046875 8.41992188 C7.62228122 8.33377324 4.016569 8.05787177 0 6 C0 4.02 0 2.04 0 0 Z " fill="#FFF8DB" transform="translate(132,226)"/>
<path d="M0 0 C0.33 0.66 0.66 1.32 1 2 C0.0625 4.625 0.0625 4.625 -1 7 C-0.01 7 0.98 7 2 7 C2 6.34 2 5.68 2 5 C2.66 5 3.32 5 4 5 C4.33 3.35 4.66 1.7 5 0 C5.99 0 6.98 0 8 0 C6.49121909 3.12636814 4.79295485 6.09067734 3 9.0625 C2.2265625 10.34833984 2.2265625 10.34833984 1.4375 11.66015625 C0.32939698 13.4638348 -0.82577048 15.23865572 -2 17 C-1.67 14.36 -1.34 11.72 -1 9 C-1.99 9 -2.98 9 -4 9 C-4 9.66 -4 10.32 -4 11 C-4.66 11 -5.32 11 -6 11 C-4.54955729 6.89041233 -2.48889248 3.56741255 0 0 Z " fill="#EACB56" transform="translate(101,163)"/>
<path d="M0 0 C2.3125 2 2.3125 2 4 4 C0.7 3.34 -2.6 2.68 -6 2 C-5.98839844 3.3509375 -5.97679687 4.701875 -5.96484375 6.09375 C-5.95545791 7.89583194 -5.94635856 9.69791539 -5.9375 11.5 C-5.92912109 12.386875 -5.92074219 13.27375 -5.91210938 14.1875 C-5.89236404 19.55823086 -6.21164107 24.68633663 -7 30 C-7.99 30 -8.98 30 -10 30 C-9.855625 29.3915625 -9.71125 28.783125 -9.5625 28.15625 C-8.14435041 21.45943249 -7.8397855 15.20320621 -8.16210938 8.39648438 C-8.31262006 3.44905251 -8.31262006 3.44905251 -6.6484375 1.05859375 C-4.23903032 -0.48867958 -2.80683432 -0.47921562 0 0 Z " fill="#E9D06C" transform="translate(354,210)"/>
<path d="M0 0 C0.6640625 1.7734375 0.6640625 1.7734375 1 4 C-1.00990295 7.58155638 -3.92047592 10.3633576 -7.4375 12.4375 C-11.35046708 13.29644399 -15.33755232 13.83122384 -19 12 C-19 11.34 -19 10.68 -19 10 C-15.7 10.33 -12.4 10.66 -9 11 C-8.34 9.68 -7.68 8.36 -7 7 C-5.2734375 5.078125 -5.2734375 5.078125 -3.375 3.25 C-2.74335938 2.63640625 -2.11171875 2.0228125 -1.4609375 1.390625 C-0.73777344 0.70226562 -0.73777344 0.70226562 0 0 Z " fill="#EBD05F" transform="translate(409,272)"/>
<path d="M0 0 C3.375 2 3.375 2 6 4 C4 5 4 5 2.375 4.5625 C-1.21808861 3.71150533 -4.29809269 3.76495827 -8 4 C-9.8354799 5.33378575 -9.8354799 5.33378575 -11 7 C-11.99 7.33 -12.98 7.66 -14 8 C-15.20882096 10.00016466 -15.20882096 10.00016466 -16 12 C-16.66 12 -17.32 12 -18 12 C-16.62523555 6.80644539 -13.25658407 3.99572509 -9 1 C-5.64870516 -0.11709828 -3.51689744 -0.34479387 0 0 Z " fill="#FBF0C2" transform="translate(147,168)"/>
<path d="M0 0 C3.2591905 1.35638895 6.36669266 2.73338531 8 6 C8.07033769 7.87379605 8.0843022 9.75001102 8.0625 11.625 C8.05347656 12.62789062 8.04445313 13.63078125 8.03515625 14.6640625 C8.02355469 15.43492187 8.01195312 16.20578125 8 17 C7.67 17 7.34 17 7 17 C6.34 12.71 5.68 8.42 5 4 C1.37 3.34 -2.26 2.68 -6 2 C-6 2.66 -6 3.32 -6 4 C-7.32 4 -8.64 4 -10 4 C-10.33 4.99 -10.66 5.98 -11 7 C-11.99 6.67 -12.98 6.34 -14 6 C-9.1080367 0.97930082 -7.15316233 -0.58632478 0 0 Z " fill="#ECCF65" transform="translate(417,157)"/>
<path d="M0 0 C1.72880982 -0.05449838 3.45812712 -0.09301688 5.1875 -0.125 C6.15042969 -0.14820313 7.11335938 -0.17140625 8.10546875 -0.1953125 C11.12812778 0.0086456 13.26769985 0.73125368 16 2 C16 2.66 16 3.32 16 4 C15.154375 3.67 14.30875 3.34 13.4375 3 C8.84098956 1.66283333 4.99577406 1.09254152 0.54296875 3.1171875 C-2.66189581 5.49006725 -4.13216829 7.99498091 -6.125 11.4375 C-8.27101205 15.10743111 -10.35984463 18.66290921 -13 22 C-12.49287967 18.28111761 -11.88391785 15.26545761 -10 12 C-9.34 12 -8.68 12 -8 12 C-7.34 10.02 -6.68 8.04 -6 6 C-5.34 6 -4.68 6 -4 6 C-4 5.01 -4 4.02 -4 3 C-3.01 2.67 -2.02 2.34 -1 2 C-0.67 1.34 -0.34 0.68 0 0 Z " fill="#FEF6D2" transform="translate(407,156)"/>
<path d="M0 0 C1.12900049 3.8077282 0.65455927 5.55796039 -0.875 9.25 C-2.69908745 13.93601777 -3.62257998 17.99918469 -4 23 C-4.66 23 -5.32 23 -6 23 C-6.15873088 31.54824466 -6.15873088 31.54824466 -5 40 C-5.66 40 -6.32 40 -7 40 C-10.95017042 32.09965915 -7.68946141 22.24469527 -5.13647461 14.43603516 C-3.4779006 9.60390181 -1.77584985 4.79030774 0 0 Z " fill="#FBF2CC" transform="translate(397,242)"/>
<path d="M0 0 C0.66 0.33 1.32 0.66 2 1 C2 1.99 2 2.98 2 4 C1.34 4 0.68 4 0 4 C0 5.65 0 7.3 0 9 C-1.65 8.67 -3.3 8.34 -5 8 C-5.4021875 9.2065625 -5.4021875 9.2065625 -5.8125 10.4375 C-6.204375 11.283125 -6.59625 12.12875 -7 13 C-7.99 13.33 -8.98 13.66 -10 14 C-10.33 15.65 -10.66 17.3 -11 19 C-11.66 19 -12.32 19 -13 19 C-11.68115271 14.15466975 -9.74327084 11.06189624 -6.5 7.25 C-5.7059375 6.30640625 -4.911875 5.3628125 -4.09375 4.390625 C-2.77537916 2.88532098 -1.41492789 1.41492789 0 0 Z " fill="#ECCE5A" transform="translate(117,162)"/>
<path d="M0 0 C1.71486208 3.42972417 -0.22206879 7.03821476 -1.25 10.5625 C-1.48307861 11.3779126 -1.71615723 12.1933252 -1.95629883 13.03344727 C-6.21852246 27.8277837 -6.21852246 27.8277837 -9 32 C-8.66493222 26.36161807 -8.0217681 21.49886241 -5.82421875 16.2890625 C-4.35120214 12.19812537 -3.61057933 7.91420676 -2.74609375 3.66015625 C-2.49988281 2.78230469 -2.25367188 1.90445313 -2 1 C-1.34 0.67 -0.68 0.34 0 0 Z " fill="#FCF2C4" transform="translate(193,208)"/>
<path d="M0 0 C-0.125 1.75 -0.125 1.75 -1 4 C-4.15849558 6.38641889 -7.40734291 8.34185057 -11 10 C-11.3125 7.8125 -11.3125 7.8125 -11 5 C-7.65953926 0.57880196 -5.52265388 -0.64216906 0 0 Z " fill="#FDF1BB" transform="translate(333,156)"/>
<path d="M0 0 C0.33 0 0.66 0 1 0 C1.02687279 1.81242052 1.04633715 3.62495233 1.0625 5.4375 C1.07410156 6.44683594 1.08570313 7.45617187 1.09765625 8.49609375 C1 11 1 11 0 12 C-0.64834999 19.73768508 -0.66778394 26.37962627 3.22265625 33.23046875 C4 35 4 35 3 38 C-1.25827213 31.23238893 -2.47416914 25.16351556 -2.4375 17.3125 C-2.43492187 16.51739014 -2.43234375 15.72228027 -2.4296875 14.90307617 C-2.29929276 9.6682707 -1.4326552 5.03443093 0 0 Z " fill="#E7CD5D" transform="translate(294,240)"/>
<path d="M0 0 C0.33 0 0.66 0 1 0 C1.30432242 5.17348111 0.79297291 7.7031186 -2 12 C-2.68255989 14.32873375 -3.35050775 16.66182791 -4 19 C-4.66 19.99 -5.32 20.98 -6 22 C-6.33 23.03125 -6.66 24.0625 -7 25.125 C-8 28 -8 28 -10 29 C-7.67685461 18.95516186 -3.83099184 9.54074406 0 0 Z " fill="#FDF4D1" transform="translate(408,212)"/>
<path d="M0 0 C4.12498538 -0.02892385 8.24994485 -0.04677267 12.375 -0.0625 C14.1384375 -0.07506836 14.1384375 -0.07506836 15.9375 -0.08789062 C17.61972656 -0.09272461 17.61972656 -0.09272461 19.3359375 -0.09765625 C20.89127197 -0.10551147 20.89127197 -0.10551147 22.47802734 -0.11352539 C25 0 25 0 27 1 C27 1.66 27 2.32 27 3 C28.65 3.66 30.3 4.32 32 5 C31.01 5.495 31.01 5.495 30 6 C29.01 5.67 28.02 5.34 27 5 C25.66636297 4.85596652 24.32781954 4.75409577 22.98828125 4.68359375 C22.23095703 4.64169922 21.47363281 4.59980469 20.69335938 4.55664062 C19.51483398 4.49766602 19.51483398 4.49766602 18.3125 4.4375 C17.51521484 4.39431641 16.71792969 4.35113281 15.89648438 4.30664062 C13.93118553 4.20072632 11.96561504 4.09987449 10 4 C10 3.67 10 3.34 10 3 C16.435 2.505 16.435 2.505 23 2 C11.615 1.505 11.615 1.505 0 1 C0 0.67 0 0.34 0 0 Z " fill="#F8ECA7" transform="translate(138,145)"/>
<path d="M0 0 C0.93423645 3.01031744 1.04449911 3.86650268 0 7 C-0.165 7.66 -0.33 8.32 -0.5 9 C-0.92202438 10.68809751 -1.44974753 12.3492426 -2 14 C-2.66 14 -3.32 14 -4 14 C-4.66 15.65 -5.32 17.3 -6 19 C-6.33 19 -6.66 19 -7 19 C-6.505 14.545 -6.505 14.545 -6 10 C-5.34 10 -4.68 10 -4 10 C-3.896875 9.278125 -3.79375 8.55625 -3.6875 7.8125 C-2.94013068 4.75508007 -1.71954811 2.61670365 0 0 Z " fill="#ECCB4F" transform="translate(302,224)"/>
<path d="M0 0 C1 2 1 2 0.48681641 4.07202148 C0.19468262 4.91321533 -0.09745117 5.75440918 -0.3984375 6.62109375 C-0.71296875 7.55759766 -1.0275 8.49410156 -1.3515625 9.45898438 C-2.02222616 11.41082041 -2.69657342 13.36139551 -3.375 15.31054688 C-5.57921839 21.90080146 -6.68300044 28.05737049 -7 35 C-7.33 35 -7.66 35 -8 35 C-8.05441656 33.10448978 -8.09298035 31.2085208 -8.125 29.3125 C-8.14820313 28.25675781 -8.17140625 27.20101563 -8.1953125 26.11328125 C-7.99649752 22.94417039 -7.25711654 20.883691 -6 18 C-5.74522526 16.02549573 -5.49219867 14.05039096 -5.28515625 12.0703125 C-4.85265439 8.93023048 -3.94442888 6.02217242 -3 3 C-2.34 3 -1.68 3 -1 3 C-0.67 2.01 -0.34 1.02 0 0 Z " fill="#E6CC5C" transform="translate(396,242)"/>
<path d="M0 0 C0.33 0 0.66 0 1 0 C1 1.98 1 3.96 1 6 C0.01 6.33 -0.98 6.66 -2 7 C-3.42631245 9.70248675 -4.0105151 11.55836563 -3.9375 14.625 C-4 17 -4 17 -5.375 18.8125 C-7 20 -7 20 -9 20 C-8.484897 14.68544522 -6.63835295 11.09376879 -3.9375 6.625 C-3.37192383 5.66400391 -3.37192383 5.66400391 -2.79492188 4.68359375 C-1.87160383 3.11745934 -0.93694607 1.55801966 0 0 Z " fill="#EECE5E" transform="translate(402,164)"/>
<path d="M0 0 C4.62 0 9.24 0 14 0 C14 0.66 14 1.32 14 2 C14.66 2 15.32 2 16 2 C16.33 3.32 16.66 4.64 17 6 C15.5459375 4.9790625 15.5459375 4.9790625 14.0625 3.9375 C10.29747063 1.81967098 7.52395769 1.56157119 3.2890625 2.23828125 C-0.76960152 3.58886057 -3.84000363 6.1844174 -7 9 C-7.33 8.01 -7.66 7.02 -8 6 C-6.68 5.34 -5.36 4.68 -4 4 C-4 3.34 -4 2.68 -4 2 C-2.68 2 -1.36 2 0 2 C0 1.34 0 0.68 0 0 Z " fill="#E9CB4E" transform="translate(137,167)"/>
<path d="M0 0 C3.875 2.625 3.875 2.625 5 6 C5.96892975 13.66838686 4.28805585 18.65980313 0 25 C-0.33 24.34 -0.66 23.68 -1 23 C-0.525625 21.824375 -0.05125 20.64875 0.4375 19.4375 C3.07314269 12.77585265 2.71477542 6.61726508 0 0 Z " fill="#E8CC60" transform="translate(423,272)"/>
<path d="M0 0 C3.3114019 0.57093136 4.75054423 1.54604826 7 4 C12.53343483 6.76671741 19.39289973 4.60202865 25 3 C21.24290336 7.15964271 19.19970507 7.7884899 13.75 8.3125 C9.23951262 7.93662605 5.64907881 6.71793456 2 4 C0.76953125 1.859375 0.76953125 1.859375 0 0 Z " fill="#E5CA53" transform="translate(315,181)"/>
<path d="M0 0 C7.59 0.33 15.18 0.66 23 1 C23 1.33 23 1.66 23 2 C18.38 2 13.76 2 9 2 C9 2.66 9 3.32 9 4 C10.65 4.33 12.3 4.66 14 5 C10.79700091 6.06287862 9.01047549 5.96603992 5.875 4.75 C5.19179687 4.49734375 4.50859375 4.2446875 3.8046875 3.984375 C2 3 2 3 0 0 Z " fill="#E6D47B" transform="translate(236,296)"/>
<path d="M0 0 C1.13250374 3.39751123 0.73032484 4.57691282 0 8 C-0.11405904 10.01857974 -0.17472023 12.04074079 -0.1875 14.0625 C-0.20167969 15.08472656 -0.21585938 16.10695313 -0.23046875 17.16015625 C0.00086464 20.01065415 0.43870163 21.62792213 2 24 C2.66 24.33 3.32 24.66 4 25 C1 25 1 25 -1.16015625 23.42578125 C-4.71479281 18.73909484 -3.55407619 12.61081749 -3 7 C-2.25922339 4.32050516 -1.38642323 2.42624065 0 0 Z " fill="#FDF4CC" transform="translate(198,293)"/>
<path d="M0 0 C0.86671772 3.16337376 0.99470854 5.4844244 0.5625 8.75 C0.46066406 9.54921875 0.35882813 10.3484375 0.25390625 11.171875 C0.17011719 11.77515625 0.08632812 12.3784375 0 13 C-0.99 13 -1.98 13 -3 13 C-3.18175781 13.99580078 -3.18175781 13.99580078 -3.3671875 15.01171875 C-4.22547708 19.53424459 -5.03971311 23.79938524 -7 28 C-8.3564176 24.29578878 -7.61495906 22.02480466 -6.34765625 18.359375 C-5.98349609 17.28945313 -5.61933594 16.21953125 -5.24414062 15.1171875 C-4.85419922 14.00601562 -4.46425781 12.89484375 -4.0625 11.75 C-3.67642578 10.62335938 -3.29035156 9.49671875 -2.89257812 8.3359375 C-1.93773154 5.55391536 -0.9732436 2.77562868 0 0 Z " fill="#EACE61" transform="translate(213,250)"/>
<path d="M0 0 C1.50390625 1.30859375 1.50390625 1.30859375 3 3 C2.9375 6.0625 2.9375 6.0625 2 9 C0 10.1875 0 10.1875 -2 11 C-2.33 11.99 -2.66 12.98 -3 14 C-5.0625 14.6875 -5.0625 14.6875 -7 15 C-6.625 13.0625 -6.625 13.0625 -6 11 C-5.34 10.67 -4.68 10.34 -4 10 C-2.86897474 7.65961814 -2.86897474 7.65961814 -1.875 4.9375 C-1.52179688 4.01839844 -1.16859375 3.09929687 -0.8046875 2.15234375 C-0.40636719 1.08693359 -0.40636719 1.08693359 0 0 Z " fill="#EFCC4B" transform="translate(343,241)"/>
<path d="M0 0 C0.99 0.33 1.98 0.66 3 1 C5.13317164 6.29665592 4.22672202 12.96123663 4.25 18.5625 C4.270625 19.80708984 4.29125 21.05167969 4.3125 22.33398438 C4.31765625 23.52443359 4.3228125 24.71488281 4.328125 25.94140625 C4.3374707 27.03138916 4.34681641 28.12137207 4.35644531 29.24438477 C4 32 4 32 2.47949219 33.87866211 C1.99125977 34.24870361 1.50302734 34.61874512 1 35 C1.16113281 33.88753906 1.32226562 32.77507812 1.48828125 31.62890625 C2.09801741 26.72619582 2.18378057 21.87318499 2.1875 16.9375 C2.19974609 16.07833984 2.21199219 15.21917969 2.22460938 14.33398438 C2.23647466 9.15676512 1.68263234 4.90158116 0 0 Z " fill="#F8EAB7" transform="translate(183,165)"/>
<path d="M0 0 C2.64 0 5.28 0 8 0 C7.41992188 0.27457031 6.83984375 0.54914063 6.2421875 0.83203125 C-0.38361333 4.28345015 -5.43546198 9.15600814 -10 15 C-10.33 13.68 -10.66 12.36 -11 11 C-9.68 10.34 -8.36 9.68 -7 9 C-7 8.34 -7 7.68 -7 7 C-6.34 7 -5.68 7 -5 7 C-5 6.34 -5 5.68 -5 5 C-4.34 5 -3.68 5 -3 5 C-3 4.34 -3 3.68 -3 3 C-2.34 3 -1.68 3 -1 3 C-0.67 2.01 -0.34 1.02 0 0 Z " fill="#FEF6D5" transform="translate(316,204)"/>
<path d="M0 0 C-1.06737018 3.09537351 -1.97518567 3.98455997 -4.8125 5.75 C-7.86558893 6.94728978 -9.77308179 7.28472808 -13 7 C-12.67 6.01 -12.34 5.02 -12 4 C-11.34 4 -10.68 4 -10 4 C-10 3.34 -10 2.68 -10 2 C-8.71211992 1.46987262 -7.41953322 0.9511671 -6.125 0.4375 C-5.40570313 0.14746094 -4.68640625 -0.14257812 -3.9453125 -0.44140625 C-2 -1 -2 -1 0 0 Z " fill="#EECA3D" transform="translate(130,146)"/>
<path d="M0 0 C0.33 0 0.66 0 1 0 C1.125 6.75 1.125 6.75 0 9 C-0.66 9 -1.32 9 -2 9 C-2.0825 10.0725 -2.165 11.145 -2.25 12.25 C-2.95274134 18.0817043 -5.02768958 23.49587789 -7 29 C-8.22728491 25.48698622 -7.75895918 23.39528139 -6.6015625 19.90234375 C-6.28703125 18.93619141 -5.9725 17.97003906 -5.6484375 16.97460938 C-5.31070313 15.97236328 -4.97296875 14.97011719 -4.625 13.9375 C-4.295 12.93138672 -3.965 11.92527344 -3.625 10.88867188 C-2.75967199 8.25575311 -1.88302849 5.62702372 -1 3 C-0.67 2.01 -0.34 1.02 0 0 Z " fill="#EACF61" transform="translate(99,189)"/>
<path d="M0 0 C3.29673633 0.59676022 5.1723181 1.68171774 7.6875 3.875 C8.28949219 4.38804687 8.89148438 4.90109375 9.51171875 5.4296875 C12.4565721 8.5368556 12.16284227 12.0038372 12.1875 16.0625 C12.20167969 17.12597656 12.21585937 18.18945312 12.23046875 19.28515625 C12 22 12 22 10 24 C10.06960938 22.948125 10.06960938 22.948125 10.140625 21.875 C10.38452921 15.46380366 10.1648859 10.14931348 6 5 C2.93237162 2.96175327 2.93237162 2.96175327 0 2 C0 1.34 0 0.68 0 0 Z " fill="#E9CB61" transform="translate(336,153)"/>
<path d="M0 0 C1.98 0.66 3.96 1.32 6 2 C6.66 1.34 7.32 0.68 8 0 C8 1.32 8 2.64 8 4 C11.465 3.505 11.465 3.505 15 3 C13.33871866 5.01270624 12.45159728 5.91655268 9.84375 6.3984375 C8.68359375 6.38683594 8.68359375 6.38683594 7.5 6.375 C6.7265625 6.38273437 5.953125 6.39046875 5.15625 6.3984375 C2.49585212 5.90684224 1.58668746 5.16643864 0 3 C0 2.01 0 1.02 0 0 Z " fill="#ECCB4E" transform="translate(177,272)"/>
<path d="M0 0 C0.99593122 3.10284237 0.97901244 4.97539856 0.0390625 8.08203125 C-0.18523437 8.84966797 -0.40953125 9.61730469 -0.640625 10.40820312 C-1.00414063 11.59833008 -1.00414063 11.59833008 -1.375 12.8125 C-2.99607183 18.21458828 -4.35572864 23.38884596 -5 29 C-5.33 29 -5.66 29 -6 29 C-6.23341328 22.69784145 -5.39477733 17.13513544 -4 11 C-3.80921875 10.12988281 -3.6184375 9.25976562 -3.421875 8.36328125 C-2.95533903 6.2405426 -2.47871537 4.12002519 -2 2 C-1.34 2 -0.68 2 0 2 C0 1.34 0 0.68 0 0 Z " fill="#FEF9D6" transform="translate(85,192)"/>
<path d="M0 0 C0.33 0 0.66 0 1 0 C1 2.31 1 4.62 1 7 C0.34 7 -0.32 7 -1 7 C-1.020625 7.5775 -1.04125 8.155 -1.0625 8.75 C-2.60679013 12.4562963 -5.4367181 13.31212963 -9 15 C-9.66 14.67 -10.32 14.34 -11 14 C-10.0409375 13.5978125 -10.0409375 13.5978125 -9.0625 13.1875 C-6.66868314 12.11332248 -6.66868314 12.11332248 -6 9 C-5.319375 8.3503125 -5.319375 8.3503125 -4.625 7.6875 C-2.43450415 5.41275431 -1.32698522 2.84353977 0 0 Z " fill="#FAF4D1" transform="translate(427,288)"/>
<path d="M0 0 C1 2 1 2 0.25 5.5625 C-0.1625 6.696875 -0.575 7.83125 -1 9 C-1.99 9.33 -2.98 9.66 -4 10 C-4.6837045 11.32467746 -5.34964186 12.65863633 -6 14 C-6.99 14.66 -7.98 15.32 -9 16 C-9.99 15.67 -10.98 15.34 -12 15 C-11.32904297 14.38125 -11.32904297 14.38125 -10.64453125 13.75 C-6.25326061 9.55535342 -2.97928993 5.28583698 0 0 Z " fill="#FBF2CD" transform="translate(355,264)"/>
<path d="M0 0 C1.65 0.33 3.3 0.66 5 1 C4.61328125 1.61746094 4.2265625 2.23492187 3.828125 2.87109375 C0.41354622 8.42401023 -2.52376597 13.96964183 -5 20 C-5.80256019 17.68944455 -6.17740468 16.46654491 -5.29296875 14.140625 C-4.92816406 13.51671875 -4.56335938 12.8928125 -4.1875 12.25 C-2.0010463 8.22510946 -0.95800423 4.47068641 0 0 Z " fill="#E7CA52" transform="translate(316,220)"/>
<path d="M0 0 C0 3 0 3 -1.21484375 4.60546875 C-4.62204219 7.73452855 -6.9599545 9.40619175 -11.6875 9.4375 C-14.56878171 9.26861493 -17.21790985 8.7598937 -20 8 C-19.67 6.68 -19.34 5.36 -19 4 C-18.67 4.99 -18.34 5.98 -18 7 C-9.10774659 6.55765544 -9.10774659 6.55765544 -1.6875 2.375 C-1.130625 1.59125 -0.57375 0.8075 0 0 Z " fill="#FDF5CD" transform="translate(226,182)"/>
<path d="M0 0 C0.9590625 1.2375 0.9590625 1.2375 1.9375 2.5 C5.52417044 5.42789424 7.21755254 5.73341445 11.70703125 5.5078125 C15.61452191 4.64243978 17.97979656 2.57038591 21 0 C20.11434923 2.97900712 19.28353801 4.73418312 17 6.875 C12.61520078 8.51929971 8.51107096 8.15894181 4 7 C1.69140625 5.6953125 1.69140625 5.6953125 0 4 C0 2.68 0 1.36 0 0 Z " fill="#FBF1C2" transform="translate(175,272)"/>
<path d="M0 0 C1.07174763 3.65188082 0.76411467 6.26432828 0 10 C-0.66 10 -1.32 10 -2 10 C-2.33 14.95 -2.66 19.9 -3 25 C-3.33 25 -3.66 25 -4 25 C-4.76595745 7.65957447 -4.76595745 7.65957447 0 0 Z " fill="#FCF5D1" transform="translate(314,231)"/>
<path d="M0 0 C1.91920272 2.75062628 2.00489767 3.96140275 1.57421875 7.35546875 C1.13529297 9.25232422 1.13529297 9.25232422 0.6875 11.1875 C-0.55756161 16.79197908 -1.49813188 22.27870349 -2 28 C-2.33 28 -2.66 28 -3 28 C-3.2046463 21.5536415 -2.80698539 15.33269657 -2.0625 8.9375 C-1.97564941 8.1751001 -1.88879883 7.4127002 -1.79931641 6.62719727 C-1.12744926 1.12744926 -1.12744926 1.12744926 0 0 Z " fill="#E9CC60" transform="translate(112,228)"/>
<path d="M0 0 C0.99 0.33 1.98 0.66 3 1 C3 6.94 3 12.88 3 19 C2.01 19.33 1.02 19.66 0 20 C0 21.32 0 22.64 0 24 C-1.32 23.67 -2.64 23.34 -4 23 C-3.54625 22.4225 -3.0925 21.845 -2.625 21.25 C0.43662565 17.01082602 1.25954855 14.22324348 1.1875 8.9375 C1.18105469 7.89464844 1.17460937 6.85179687 1.16796875 5.77734375 C1.11482965 2.91385392 1.11482965 2.91385392 0 0 Z " fill="#EACC54" transform="translate(270,217)"/>
<path d="M0 0 C0.66 0 1.32 0 2 0 C1.28621973 8.13709505 -0.32773882 16.01731928 -2 24 C-2.33 24 -2.66 24 -3 24 C-1.47016275 2.9403255 -1.47016275 2.9403255 0 0 Z " fill="#FCF0A1" transform="translate(91,205)"/>
<path d="M0 0 C9.73995772 -0.57293869 9.73995772 -0.57293869 14 3 C14 3.66 14 4.32 14 5 C14.66 5 15.32 5 16 5 C17.09506492 8.28519475 17.09960608 10.73663415 17.0625 14.1875 C17.05347656 15.27417969 17.04445312 16.36085937 17.03515625 17.48046875 C17.02355469 18.31191406 17.01195312 19.14335937 17 20 C16.34 20.33 15.68 20.66 15 21 C15.05800781 20.19175781 15.11601562 19.38351563 15.17578125 18.55078125 C15.6306229 11.73852903 15.6306229 11.73852903 12.625 5.875 C11.75875 5.25625 10.8925 4.6375 10 4 C9.34 3.34 8.68 2.68 8 2 C5.34462628 1.43479997 2.70855287 1.26211802 0 1 C0 0.67 0 0.34 0 0 Z " fill="#FDF4C9" transform="translate(212,161)"/>
<path d="M0 0 C1.40632578 2.81265157 0.53440321 4.05287441 -0.43359375 7.0078125 C-0.75263672 7.99394531 -1.07167969 8.98007812 -1.40039062 9.99609375 C-1.74263672 11.02863281 -2.08488281 12.06117188 -2.4375 13.125 C-2.77587891 14.16527344 -3.11425781 15.20554687 -3.46289062 16.27734375 C-4.3020101 18.85379509 -5.14796906 21.42779536 -6 24 C-6.33 24 -6.66 24 -7 24 C-7.61090954 17.5243589 -6.16101087 13.41596055 -3.2890625 7.61328125 C-2.05661638 5.11477684 -1.0018392 2.59822784 0 0 Z " fill="#E7CC5D" transform="translate(230,272)"/>
<path d="M0 0 C0.99 0 1.98 0 3 0 C2.4887988 4.50343911 0.82478642 6.87525426 -2.0625 10.3125 C-2.79597656 11.19550781 -3.52945312 12.07851562 -4.28515625 12.98828125 C-4.85105469 13.65214844 -5.41695313 14.31601562 -6 15 C-6.33 14.34 -6.66 13.68 -7 13 C-6.67 12.01 -6.34 11.02 -6 10 C-5.34 10 -4.68 10 -4 10 C-3.67 8.68 -3.34 7.36 -3 6 C-2.34 6 -1.68 6 -1 6 C-1.020625 5.195625 -1.04125 4.39125 -1.0625 3.5625 C-1 1 -1 1 0 0 Z " fill="#E8CB51" transform="translate(285,243)"/>
<path d="M0 0 C0.66 0.33 1.32 0.66 2 1 C1.33613281 1.61746094 0.67226562 2.23492187 -0.01171875 2.87109375 C-5.51876174 8.15303133 -9.80706777 13.04276871 -13 20 C-13.33 19.01 -13.66 18.02 -14 17 C-12.63671875 14.30078125 -12.63671875 14.30078125 -10.6875 11.3125 C-10.05199219 10.31863281 -9.41648438 9.32476562 -8.76171875 8.30078125 C-8.18035156 7.54152344 -7.59898437 6.78226563 -7 6 C-6.34 6 -5.68 6 -5 6 C-5 5.34 -5 4.68 -5 4 C-4.34 4 -3.68 4 -3 4 C-3 3.34 -3 2.68 -3 2 C-2.01 1.34 -1.02 0.68 0 0 Z " fill="#FEF7D0" transform="translate(239,198)"/>
<path d="M0 0 C1.10823705 3.76322221 0.85362237 5.46929072 -1 9 C-3 11.1875 -3 11.1875 -5 13 C-5.66 13.66 -6.32 14.32 -7 15 C-9.625 14.625 -9.625 14.625 -12 14 C-10.1875 12.79166667 -8.375 11.58333333 -6.5625 10.375 C-3.2838869 7.33628542 -1.76182628 4.05515322 0 0 Z " fill="#FBF3CC" transform="translate(221,304)"/>
<path d="M0 0 C1.03198323 3.6136331 0.81192462 6.0469607 0.0625 9.75 C-0.13214844 10.73484375 -0.32679688 11.7196875 -0.52734375 12.734375 C-0.68332031 13.48203125 -0.83929688 14.2296875 -1 15 C-1.99 15.33 -2.98 15.66 -4 16 C-4.33 17.98 -4.66 19.96 -5 22 C-6.08557892 18.74004193 -5.91310151 16.89457573 -4.78515625 13.671875 C-4.51123047 12.87265625 -4.23730469 12.0734375 -3.95507812 11.25 C-3.51325195 10.0125 -3.51325195 10.0125 -3.0625 8.75 C-2.77181641 7.90953125 -2.48113281 7.0690625 -2.18164062 6.203125 C-1.46378767 4.13194269 -0.73633881 2.06466738 0 0 Z " fill="#EDD168" transform="translate(204,278)"/>
<path d="M0 0 C0.33 0 0.66 0 1 0 C1.03738281 1.12277344 1.07476562 2.24554688 1.11328125 3.40234375 C1.44369774 11.42636048 1.86249174 18.49726287 5 26 C4.34 26 3.68 26 3 26 C0.11782794 22.99563891 -0.36445758 20.89556797 -0.29296875 16.796875 C-0.28330078 15.8171875 -0.27363281 14.8375 -0.26367188 13.828125 C-0.2259668 12.30445313 -0.2259668 12.30445313 -0.1875 10.75 C-0.17396484 9.71875 -0.16042969 8.6875 -0.14648438 7.625 C-0.11117607 5.08280208 -0.06186036 2.54166777 0 0 Z " fill="#FBF0BC" transform="translate(291,250)"/>
<path d="M0 0 C0.33 0.99 0.66 1.98 1 3 C0.01453001 4.67529898 -0.98940479 6.33973644 -2 8 C-2.84243111 10.26018103 -3.57546358 12.5408694 -4.3046875 14.83984375 C-5.08918277 17.27706782 -6.01002468 19.63928963 -7 22 C-7.33 22 -7.66 22 -8 22 C-7.67 19.69 -7.34 17.38 -7 15 C-6.34 15 -5.68 15 -5 15 C-4.67 11.7 -4.34 8.4 -4 5 C-3.34 5 -2.68 5 -2 5 C-1.855625 4.360625 -1.71125 3.72125 -1.5625 3.0625 C-1 1 -1 1 0 0 Z " fill="#FDF6D2" transform="translate(385,197)"/>
<path d="M0 0 C0.33 1.32 0.66 2.64 1 4 C0.34 4 -0.32 4 -1 4 C-1.33 5.65 -1.66 7.3 -2 9 C-2.66 9 -3.32 9 -4 9 C-4 9.66 -4 10.32 -4 11 C-4.99 11 -5.98 11 -7 11 C-6.58485103 6.1565954 -4.53791301 4.18412171 -1 1 C-0.67 0.67 -0.34 0.34 0 0 Z " fill="#EFCA30" transform="translate(107,159)"/>
<path d="M0 0 C0.99 0 1.98 0 3 0 C3.33 0.99 3.66 1.98 4 3 C5.99665598 4.67067133 7.99651034 6.33752986 10 8 C10 8.66 10 9.32 10 10 C11.32 10 12.64 10 14 10 C14 10.99 14 11.98 14 13 C7.58930123 10.98520896 3.92834155 6.23778873 0 1 C0 0.67 0 0.34 0 0 Z " fill="#E9CE60" transform="translate(368,293)"/>
<path d="M0 0 C1.93527373 6.74413573 -0.31934876 12.78088913 -3 19 C-3.66 19.33 -4.32 19.66 -5 20 C-4.45484328 12.91296261 -2.39081395 6.67203894 0 0 Z " fill="#FDF6D3" transform="translate(235,258)"/>
<path d="M0 0 C3.11481594 0.14914404 5.41824196 0.61216131 8.0625 2.375 C7.7325 3.035 7.4025 3.695 7.0625 4.375 C3.1025 4.045 -0.8575 3.715 -4.9375 3.375 C-4.9375 4.035 -4.9375 4.695 -4.9375 5.375 C-5.5975 5.045 -6.2575 4.715 -6.9375 4.375 C-5.07897744 0.65795488 -4.25373459 0.40511758 0 0 Z " fill="#FCF2CB" transform="translate(203.9375,196.625)"/>
<path d="M0 0 C1.46726798 3.81489674 0.43336419 6.29011622 -1 10 C-1.66 10 -2.32 10 -3 10 C-3.33 11.65 -3.66 13.3 -4 15 C-4.99 15.33 -5.98 15.66 -7 16 C-6.67 14.35 -6.34 12.7 -6 11 C-5.34 11 -4.68 11 -4 11 C-3.896875 10.113125 -3.79375 9.22625 -3.6875 8.3125 C-2.98809298 4.9426298 -1.91257489 2.82728462 0 0 Z " fill="#ECCF5F" transform="translate(228,213)"/>
<path d="M0 0 C1.39431504 2.78863007 1.25660094 4.92078868 1 8 C0.01 8.66 -0.98 9.32 -2 10 C-2.99 9.67 -3.98 9.34 -5 9 C-5 9.99 -5 10.98 -5 12 C-5.66 12 -6.32 12 -7 12 C-5.44298069 7.32894208 -2.91552627 3.91294315 0 0 Z " fill="#FCF4CC" transform="translate(110,162)"/>
<path d="M0 0 C5.875 1.875 5.875 1.875 7 3 C8.51928038 3.07179964 10.04167482 3.08392007 11.5625 3.0625 C12.38878906 3.05347656 13.21507813 3.04445313 14.06640625 3.03515625 C15.02353516 3.01775391 15.02353516 3.01775391 16 3 C16 2.34 16 1.68 16 1 C17.32 1.33 18.64 1.66 20 2 C15.96680663 5.22655469 12.37383235 5.55668853 7.3828125 5.4375 C3.59236026 4.74154811 2.26759638 3.02346184 0 0 Z " fill="#E6CB5B" transform="translate(79,299)"/>
<path d="M0 0 C0.33 0 0.66 0 1 0 C1.01981934 0.63502441 1.03963867 1.27004883 1.06005859 1.92431641 C1.15581122 4.82493326 1.26528546 7.72487905 1.375 10.625 C1.4059375 11.62402344 1.436875 12.62304688 1.46875 13.65234375 C1.67239148 18.77732101 1.98611183 23.20268917 4 28 C3.01 27.67 2.02 27.34 1 27 C-0.0394775 23.8815675 -0.11494838 21.72524414 -0.09765625 18.45703125 C-0.09443359 17.38388672 -0.09121094 16.31074219 -0.08789062 15.20507812 C-0.07951172 14.08552734 -0.07113281 12.96597656 -0.0625 11.8125 C-0.05798828 10.68134766 -0.05347656 9.55019531 -0.04882812 8.38476562 C-0.03703498 5.58979073 -0.0205765 2.7949218 0 0 Z " fill="#FDF7C8" transform="translate(72,268)"/>
<path d="M0 0 C2.04862993 6.80911532 -1.98057033 14.84319418 -5 21 C-5.66 21.33 -6.32 21.66 -7 22 C-5.0827282 14.49068545 -2.75950985 7.24196241 0 0 Z " fill="#FCF2C5" transform="translate(246,225)"/>
<path d="M0 0 C0.99 0.66 1.98 1.32 3 2 C2.7734375 3.859375 2.7734375 3.859375 2 6 C0.0390625 7.265625 0.0390625 7.265625 -2.375 8.25 C-3.16648437 8.58515625 -3.95796875 8.9203125 -4.7734375 9.265625 C-7 10 -7 10 -10 10 C-10 9.34 -10 8.68 -10 8 C-8.68 8 -7.36 8 -6 8 C-6 7.34 -6 6.68 -6 6 C-5.195625 5.7525 -4.39125 5.505 -3.5625 5.25 C-0.828919 4.27761141 -0.828919 4.27761141 -0.1875 1.875 C-0.125625 1.25625 -0.06375 0.6375 0 0 Z " fill="#E9CE78" transform="translate(294,289)"/>
<path d="M0 0 C0.66 0.33 1.32 0.66 2 1 C1.01171875 3.015625 1.01171875 3.015625 -1 5 C-3.89480289 5.13117541 -6.34153404 5.06318053 -9.1875 4.75 C-10.31188477 4.65138672 -10.31188477 4.65138672 -11.45898438 4.55078125 C-13.30775601 4.38592263 -15.15420773 4.19541184 -17 4 C-17 3.67 -17 3.34 -17 3 C-16.19175781 2.95101562 -15.38351563 2.90203125 -14.55078125 2.8515625 C-13.48214844 2.77679688 -12.41351563 2.70203125 -11.3125 2.625 C-9.72888672 2.52058594 -9.72888672 2.52058594 -8.11328125 2.4140625 C-5.09095643 2.01209709 -2.80546014 1.13004524 0 0 Z " fill="#F8EDC1" transform="translate(157,229)"/>
<path d="M0 0 C0.33 0.66 0.66 1.32 1 2 C0.34 2 -0.32 2 -1 2 C-2.45232253 5.57847037 -3.81226545 9.18060107 -5.125 12.8125 C-5.47820312 13.78832031 -5.83140625 14.76414063 -6.1953125 15.76953125 C-6.46085938 16.50558594 -6.72640625 17.24164063 -7 18 C-8.49565488 13.51303537 -6.71518148 10.26922901 -5 6 C-2.53521127 1.26760563 -2.53521127 1.26760563 0 0 Z " fill="#E8CD62" transform="translate(250,218)"/>
<path d="M0 0 C5.05648166 -0.36998646 8.57951289 0.48638968 13 3 C13.9375 5.6875 13.9375 5.6875 14 8 C12.02 7.01 10.04 6.02 8 5 C8 4.34 8 3.68 8 3 C5.36 2.34 2.72 1.68 0 1 C0 0.67 0 0.34 0 0 Z " fill="#FCF3CE" transform="translate(272,191)"/>
<path d="M0 0 C0.33 0.66 0.66 1.32 1 2 C-0.55599625 6.50419967 -1.81168455 9.5447806 -6 12 C-6 11.01 -6 10.02 -6 9 C-6.99 8.67 -7.98 8.34 -9 8 C-7.68 7.01 -6.36 6.02 -5 5 C-5 5.66 -5 6.32 -5 7 C-4.01 7 -3.02 7 -2 7 C-1.34 4.69 -0.68 2.38 0 0 Z " fill="#EBC442" transform="translate(346,172)"/>
<path d="M0 0 C6.69286912 -0.47617251 10.77531236 -0.39973696 16 4 C15.67 4.99 15.34 5.98 15 7 C14.01 6.175 13.02 5.35 12 4.5 C7.86904411 1.50104429 4.99719798 1.5616493 0 2 C0 1.34 0 0.68 0 0 Z " fill="#FEF6D5" transform="translate(411,268)"/>
<path d="M0 0 C0.66 0.33 1.32 0.66 2 1 C1.21494099 3.12744999 0.4217394 5.25189674 -0.375 7.375 C-0.81585938 8.55835938 -1.25671875 9.74171875 -1.7109375 10.9609375 C-3 14 -3 14 -5 16 C-4.55643705 9.79011871 -3.08467498 5.39459439 0 0 Z " fill="#FDF6CC" transform="translate(91,176)"/>
<path d="M0 0 C0 0.99 0 1.98 0 3 C1.98 3 3.96 3 6 3 C3.36095629 4.41377341 0.92879371 5.37240135 -2 6 C-2 5.01 -2 4.02 -2 3 C-3.98 3.33 -5.96 3.66 -8 4 C-3.375 0 -3.375 0 0 0 Z " fill="#FBF3BF" transform="translate(136,146)"/>
<path d="M0 0 C-3.27301919 2.96909598 -5.38065762 3.34354794 -9.75 3.1875 C-10.73484375 3.16042969 -11.7196875 3.13335937 -12.734375 3.10546875 C-13.48203125 3.07066406 -14.2296875 3.03585937 -15 3 C-15.33 2.34 -15.66 1.68 -16 1 C-14.27111445 0.83044205 -12.54187557 0.66448486 -10.8125 0.5 C-9.84957031 0.4071875 -8.88664062 0.314375 -7.89453125 0.21875 C-5.24812333 0.01875156 -2.65239135 -0.03879183 0 0 Z " fill="#FDF7CC" transform="translate(330,260)"/>
<path d="M0 0 C0.99 0 1.98 0 3 0 C2.1875 2.9375 2.1875 2.9375 1 6 C0.01 6.33 -0.98 6.66 -2 7 C-2.73323796 9.01508358 -2.73323796 9.01508358 -3 11 C-3.66 11 -4.32 11 -5 11 C-5 11.66 -5 12.32 -5 13 C-5.99 13.33 -6.98 13.66 -8 14 C-7.34 12.68 -6.68 11.36 -6 10 C-5.34 10 -4.68 10 -4 10 C-4 8.68 -4 7.36 -4 6 C-3.01 5.67 -2.02 5.34 -1 5 C-0.67 3.35 -0.34 1.7 0 0 Z " fill="#FDF4CA" transform="translate(339,245)"/>
<path d="M0 0 C0.66 0 1.32 0 2 0 C1.32584613 5.2584002 -0.24265549 10.02638346 -2 15 C-2.33 15 -2.66 15 -3 15 C-3.36263859 9.1977825 -2.25684543 5.36000789 0 0 Z " fill="#E8CB53" transform="translate(240,236)"/>
<path d="M0 0 C0.66 0 1.32 0 2 0 C0.63172347 5.78886224 -1.04911777 11.38145918 -3 17 C-3.33 17 -3.66 17 -4 17 C-4 14.36 -4 11.72 -4 9 C-3.34 9 -2.68 9 -2 9 C-1.7834375 7.88625 -1.7834375 7.88625 -1.5625 6.75 C-1.09812508 4.47972261 -0.58136431 2.24240521 0 0 Z " fill="#FFF8D9" transform="translate(375,220)"/>
<path d="M0 0 C1.46547703 4.94458661 1.38174326 10.24213032 -0.9609375 14.91796875 C-1.90499932 16.327366 -2.94444701 17.67204623 -4 19 C-5 17 -5 17 -4.51171875 15.1171875 C-4.23972656 14.37726563 -3.96773437 13.63734375 -3.6875 12.875 C-2.18460813 8.62140237 -1.03744116 4.38917413 0 0 Z " fill="#FAF0C0" transform="translate(215,216)"/>
<path d="M0 0 C0.92092281 4.65537356 1.12205997 9.14685433 1.0625 13.875 C1.05798828 14.56335938 1.05347656 15.25171875 1.04882812 15.9609375 C1.03716336 17.64066335 1.01923271 19.32034375 1 21 C0.67 21 0.34 21 0 21 C-0.07347656 19.71416016 -0.07347656 19.71416016 -0.1484375 18.40234375 C-0.54534244 12.33243544 -0.99208399 6.75602589 -3 1 C-1 0 -1 0 0 0 Z " fill="#FEF6D4" transform="translate(365,216)"/>
<path d="M0 0 C3.81489658 -0.44359263 5.58702639 -0.26035293 8.875 1.8125 C11.95912731 6.43869096 11.42593929 10.59530363 11 16 C10.67 16 10.34 16 10 16 C9.34 11.71 8.68 7.42 8 3 C5.36 2.34 2.72 1.68 0 1 C0 0.67 0 0.34 0 0 Z " fill="#E6CB5C" transform="translate(414,158)"/>
<path d="M0 0 C2.28805777 2.28805777 2.45582599 3.33275656 3.0625 6.4375 C3.58554517 9.06137121 4.15093007 11.45279021 5 14 C4.01 14 3.02 14 2 14 C0.4087311 9.126739 -0.21192221 5.19209404 0 0 Z " fill="#FDF3CE" transform="translate(363,280)"/>
<path d="M0 0 C0 3 0 3 -1.5625 5.625 C-4.64516511 8.62862242 -6.7837853 8.75675684 -11 9 C-9.948125 8.1646875 -9.948125 8.1646875 -8.875 7.3125 C-5.88655739 4.90875268 -2.94059762 2.46189568 0 0 Z " fill="#FCF1C5" transform="translate(170,220)"/>
<path d="M0 0 C-1.32 0.33 -2.64 0.66 -4 1 C-3.67 1.99 -3.34 2.98 -3 4 C-7.455 4.495 -7.455 4.495 -12 5 C-5.5 -1.96428571 -5.5 -1.96428571 0 0 Z " fill="#ECCE59" transform="translate(136,153)"/>
<path d="M0 0 C1.8871875 0.0309375 1.8871875 0.0309375 3.8125 0.0625 C2.8225 0.7225 1.8325 1.3825 0.8125 2.0625 C1.1425 2.7225 1.4725 3.3825 1.8125 4.0625 C-1.4875 3.7325 -4.7875 3.4025 -8.1875 3.0625 C-6.45706736 -0.39836529 -3.47359009 -0.0569441 0 0 Z " fill="#EFD26B" transform="translate(331.1875,151.9375)"/>
<path d="M0 0 C5.04512224 0.25653164 5.04512224 0.25653164 7.6875 2.1875 C8.0175 3.1775 8.3475 4.1675 8.6875 5.1875 C8.0275 5.1875 7.3675 5.1875 6.6875 5.1875 C6.6875 4.5275 6.6875 3.8675 6.6875 3.1875 C5.615 3.22875 4.5425 3.27 3.4375 3.3125 C0.03002515 3.1989175 -1.51989631 2.97476636 -4.3125 1.1875 C-3.3125 0.1875 -3.3125 0.1875 0 0 Z " fill="#F9EDB7" transform="translate(260.3125,211.8125)"/>
<path d="M0 0 C0 3 0 3 -2.25 5.4375 C-3.1575 6.283125 -4.065 7.12875 -5 8 C-5.721875 8.763125 -6.44375 9.52625 -7.1875 10.3125 C-9 12 -9 12 -11 12 C-9.65235447 7.4670105 -8.0743955 6.23121658 -4 4 C-2.63015802 2.70420353 -1.2848951 1.38007251 0 0 Z " fill="#EFCB4F" transform="translate(240,201)"/>
<path d="M0 0 C2.64 0 5.28 0 8 0 C7.42507812 0.27585938 6.85015625 0.55171875 6.2578125 0.8359375 C3.30751757 2.35702381 0.58192838 4.16349581 -2.1953125 5.9765625 C-4 7 -4 7 -6 7 C-6 6.01 -6 5.02 -6 4 C-4.68 4 -3.36 4 -2 4 C-2 3.34 -2 2.68 -2 2 C-1.34 2 -0.68 2 0 2 C0 1.34 0 0.68 0 0 Z " fill="#FEF8D5" transform="translate(247,191)"/>
<path d="M0 0 C0.33 0.66 0.66 1.32 1 2 C1.66 2 2.32 2 3 2 C3 3.32 3 4.64 3 6 C2.236875 5.79375 1.47375 5.5875 0.6875 5.375 C-2.21885944 4.66608797 -2.21885944 4.66608797 -5 7 C-3.75023244 3.34683329 -3.32901247 2.21934164 0 0 Z " fill="#F1D878" transform="translate(208,164)"/>
<path d="M0 0 C0.66 0 1.32 0 2 0 C0.62712658 3.69876091 -1.06355453 6.9514476 -3.125 10.3125 C-3.66382812 11.19550781 -4.20265625 12.07851562 -4.7578125 12.98828125 C-5.37269531 13.98408203 -5.37269531 13.98408203 -6 15 C-7.1171875 11.28125 -7.1171875 11.28125 -6.0625 8.75 C-5.711875 8.1725 -5.36125 7.595 -5 7 C-4.34 7 -3.68 7 -3 7 C-3 6.01 -3 5.02 -3 4 C-2.34 4 -1.68 4 -1 4 C-0.67 2.68 -0.34 1.36 0 0 Z " fill="#FEF6D4" transform="translate(100,161)"/>
<path d="M0 0 C0.886875 0.598125 1.77375 1.19625 2.6875 1.8125 C4.67954456 3.12800112 6.69478521 4.4105549 8.75 5.625 C11 7 11 7 13 9 C9.87709365 8.51421457 7.00419641 8.0013988 4 7 C4 6.01 4 5.02 4 4 C2.68 3.67 1.36 3.34 0 3 C0 2.01 0 1.02 0 0 Z " fill="#FEF5D2" transform="translate(297,278)"/>
<path d="M0 0 C0.33 1.32 0.66 2.64 1 4 C-3.30769231 7.93846154 -3.30769231 7.93846154 -6.8125 8.25 C-7.534375 8.1675 -8.25625 8.085 -9 8 C-6.17493137 5.0702992 -3.21203935 2.49825283 0 0 Z " fill="#FDF5D1" transform="translate(278,258)"/>
<path d="M0 0 C1.65 0 3.3 0 5 0 C3.71034824 1.37562854 2.37310707 2.70766393 1 4 C0.34 4 -0.32 4 -1 4 C-1 4.66 -1 5.32 -1 6 C-2.65 6.33 -4.3 6.66 -6 7 C-5.67 6.01 -5.34 5.02 -5 4 C-4.01 4 -3.02 4 -2 4 C-1.34 2.68 -0.68 1.36 0 0 Z " fill="#E8CF5F" transform="translate(270,261)"/>
<path d="M0 0 C0.33 0 0.66 0 1 0 C1.08107583 1.93681161 1.13922475 3.8745934 1.1875 5.8125 C1.23970703 7.43091797 1.23970703 7.43091797 1.29296875 9.08203125 C1 12 1 12 -0.51171875 13.88671875 C-1.00285156 14.25410156 -1.49398437 14.62148438 -2 15 C-2.22577402 9.5814234 -1.46670113 5.22512279 0 0 Z " fill="#EDCD56" transform="translate(182,245)"/>
<path d="M0 0 C0 0.66 0 1.32 0 2 C-1.175625 2.1546875 -1.175625 2.1546875 -2.375 2.3125 C-5.33045181 2.77595022 -5.33045181 2.77595022 -7 6 C-10.125 7.1875 -10.125 7.1875 -13 8 C-9.28512894 2.90925077 -6.49189524 0 0 0 Z " fill="#FBEFC1" transform="translate(332,216)"/>
<path d="M0 0 C0.66 0 1.32 0 2 0 C1.80859375 1.89453125 1.80859375 1.89453125 1 4 C-1.21484375 5.01171875 -1.21484375 5.01171875 -3.9375 5.6875 C-7.56435646 6.58802317 -7.56435646 6.58802317 -11 8 C-10.67 6.68 -10.34 5.36 -10 4 C-7.69 4 -5.38 4 -3 4 C-3 3.34 -3 2.68 -3 2 C-2.01 2 -1.02 2 0 2 C0 1.34 0 0.68 0 0 Z " fill="#E9CB58" transform="translate(335,211)"/>
<path d="M0 0 C-2.45725657 2.06409551 -4.56989537 3.23995595 -7.5625 4.5 C-10.50531333 5.78413673 -12.03028768 6.56682595 -14 9 C-14 6.75 -14 6.75 -13 4 C-9.05788266 1.11709643 -4.93545967 -0.61693246 0 0 Z " fill="#FEF7CF" transform="translate(145,204)"/>
<path d="M0 0 C0 0.66 0 1.32 0 2 C-0.66 2 -1.32 2 -2 2 C-2.2475 2.639375 -2.495 3.27875 -2.75 3.9375 C-4 6 -4 6 -6.125 6.75 C-7.053125 6.87375 -7.053125 6.87375 -8 7 C-6.4365884 2.43002763 -5.27390657 0 0 0 Z " fill="#FCFAE3" transform="translate(331,157)"/>
<path d="M0 0 C2.29160319 -0.02692484 4.58329546 -0.04636124 6.875 -0.0625 C8.15117187 -0.07410156 9.42734375 -0.08570313 10.7421875 -0.09765625 C14 0 14 0 16 1 C16 1.99 16 2.98 16 4 C15.030625 3.67 14.06125 3.34 13.0625 3 C8.70233163 1.73126248 4.50445434 1.81614472 0 2 C0 1.34 0 0.68 0 0 Z " fill="#FDF3C6" transform="translate(326,151)"/>
<path d="M0 0 C1.29221628 4.20893303 0.48195994 6.85051218 -1 11 C-2.625 13.4375 -2.625 13.4375 -4 15 C-3.32584613 9.7415998 -1.75734451 4.97361654 0 0 Z " fill="#FBF5C9" transform="translate(229,278)"/>
<path d="M0 0 C1.39460991 2.78921982 0.58060045 4.12077103 -0.3125 7.0625 C-0.57675781 7.96097656 -0.84101563 8.85945312 -1.11328125 9.78515625 C-2 12 -2 12 -4 13 C-2.88767123 3.46575342 -2.88767123 3.46575342 -2 1 C-1.34 0.67 -0.68 0.34 0 0 Z " fill="#FEF7D5" transform="translate(193,208)"/>
<path d="M0 0 C0.98120464 3.05263664 0.98120464 4.94736336 0 8 C-0.66 8 -1.32 8 -2 8 C-2.33 9.98 -2.66 11.96 -3 14 C-3.66 14 -4.32 14 -5 14 C-4.54636829 12.41531323 -4.08688548 10.83230076 -3.625 9.25 C-3.36976563 8.36828125 -3.11453125 7.4865625 -2.8515625 6.578125 C-2.0790066 4.23919428 -1.16374324 2.16557438 0 0 Z " fill="#FCF3CC" transform="translate(414,198)"/>
<path d="M0 0 C4.29 0 8.58 0 13 0 C13 0.66 13 1.32 13 2 C12.07767578 1.98259766 12.07767578 1.98259766 11.13671875 1.96484375 C9.92435547 1.95130859 9.92435547 1.95130859 8.6875 1.9375 C7.88699219 1.92589844 7.08648437 1.91429687 6.26171875 1.90234375 C3.83138666 1.90342145 3.83138666 1.90342145 1 3 C1 3.66 1 4.32 1 5 C0.34 5 -0.32 5 -1 5 C-0.67 3.35 -0.34 1.7 0 0 Z " fill="#E7CB4E" transform="translate(253,211)"/>
<path d="M0 0 C0.33 1.32 0.66 2.64 1 4 C0.34 4 -0.32 4 -1 4 C-1.33 5.32 -1.66 6.64 -2 8 C-3.65 8.33 -5.3 8.66 -7 9 C-6.02180976 7.68677212 -5.0424189 6.37443848 -4.0625 5.0625 C-3.51722656 4.33160156 -2.97195313 3.60070312 -2.41015625 2.84765625 C-1 1 -1 1 0 0 Z " fill="#FAEEC3" transform="translate(346,177)"/>
<path d="M0 0 C3.63 0.66 7.26 1.32 11 2 C11 2.33 11 2.66 11 3 C5.72 3 0.44 3 -5 3 C-5 2.67 -5 2.34 -5 2 C-3.35 1.67 -1.7 1.34 0 1 C0 0.67 0 0.34 0 0 Z " fill="#ECD884" transform="translate(149,142)"/>
<path d="M0 0 C0.88336837 2.4667645 1.1312406 3.63859372 0.22265625 6.140625 C-0.16019531 6.83671875 -0.54304688 7.5328125 -0.9375 8.25 C-1.31777344 8.95640625 -1.69804687 9.6628125 -2.08984375 10.390625 C-2.39019531 10.92171875 -2.69054687 11.4528125 -3 12 C-3.66 12 -4.32 12 -5 12 C-3.85814266 7.52040582 -2.56984833 3.85477249 0 0 Z " fill="#FCF5D0" transform="translate(361,252)"/>
<path d="M0 0 C0.33 0 0.66 0 1 0 C1.29162929 4.95769796 1.12940055 8.02806853 -2 12 C-2.66 12 -3.32 12 -4 12 C-3.52309796 10.37433394 -3.04340334 8.74948689 -2.5625 7.125 C-2.29566406 6.22007812 -2.02882813 5.31515625 -1.75390625 4.3828125 C-1 2 -1 2 0 0 Z " fill="#FBEEC4" transform="translate(408,212)"/>
<path d="M0 0 C0.66 0 1.32 0 2 0 C1.49396008 2.16874252 1.00016187 3.99967627 0 6 C-0.66 6 -1.32 6 -2 6 C-2.33 7.98 -2.66 9.96 -3 12 C-3.88336837 9.5332355 -4.1312406 8.36140628 -3.22265625 5.859375 C-2.83980469 5.16328125 -2.45695313 4.4671875 -2.0625 3.75 C-1.68222656 3.04359375 -1.30195313 2.3371875 -0.91015625 1.609375 C-0.60980469 1.07828125 -0.30945313 0.5471875 0 0 Z " fill="#E8CB5A" transform="translate(197,202)"/>
<path d="M0 0 C-0.49831724 3.68754757 -1.10067643 5.60490662 -4 8 C-4.6875 5.6875 -4.6875 5.6875 -5 3 C-3.40083326 0.79162689 -2.76966516 0 0 0 Z " fill="#FCFBE3" transform="translate(115,161)"/>
<path d="M0 0 C3.3125 0.75 3.3125 0.75 6 2 C4.35 3.32 2.7 4.64 1 6 C1 4.68 1 3.36 1 2 C-0.32 2.99 -1.64 3.98 -3 5 C-3.66 4.67 -4.32 4.34 -5 4 C-2.875 1.875 -2.875 1.875 0 0 Z " fill="#FBF5C8" transform="translate(122,152)"/>
<path d="M0 0 C3.96 0.33 7.92 0.66 12 1 C8.33134759 3.44576827 6.32799657 3.23607254 2 3 C1.34 2.67 0.68 2.34 0 2 C0 1.34 0 0.68 0 0 Z " fill="#E5CC56" transform="translate(200,315)"/>
<path d="M0 0 C0.33 0 0.66 0 1 0 C1.66 5.28 2.32 10.56 3 16 C2.34 16 1.68 16 1 16 C-0.50156874 12.99686252 -0.09281204 10.20932478 -0.0625 6.875 C-0.05347656 5.59367187 -0.04445313 4.31234375 -0.03515625 2.9921875 C-0.02355469 2.00476563 -0.01195312 1.01734375 0 0 Z " fill="#FAF0BD" transform="translate(389,266)"/>
<path d="M0 0 C1.60226148 4.00565371 0.47694566 7.08609399 -1 11 C-1.99 11.33 -2.98 11.66 -4 12 C-3.52309796 10.37433394 -3.04340334 8.74948689 -2.5625 7.125 C-2.29566406 6.22007812 -2.02882812 5.31515625 -1.75390625 4.3828125 C-1 2 -1 2 0 0 Z " fill="#FCF5D2" transform="translate(201,260)"/>
<path d="M0 0 C1.15957207 3.47871621 0.77456651 4.34219645 -0.4375 7.6875 C-0.72496094 8.49574219 -1.01242188 9.30398438 -1.30859375 10.13671875 C-1.65083984 11.05904297 -1.65083984 11.05904297 -2 12 C-2.33 12 -2.66 12 -3 12 C-3.36923077 4.61538462 -3.36923077 4.61538462 -1.5 1.5 C-1.005 1.005 -0.51 0.51 0 0 Z " fill="#E6CD5B" transform="translate(234,258)"/>
<path d="M0 0 C1.93627769 -0.10807131 3.87427756 -0.1856225 5.8125 -0.25 C7.43091797 -0.31960937 7.43091797 -0.31960937 9.08203125 -0.390625 C12 0 12 0 13.88671875 2.015625 C14.25410156 2.67046875 14.62148437 3.3253125 15 4 C11.125 3.125 11.125 3.125 10 2 C8.31391034 1.92794489 6.62499341 1.91613932 4.9375 1.9375 C4.01839844 1.94652344 3.09929687 1.95554688 2.15234375 1.96484375 C1.44207031 1.97644531 0.73179687 1.98804688 0 2 C0 1.34 0 0.68 0 0 Z " fill="#E7CD5D" transform="translate(199,200)"/>
<path d="M0 0 C0.66 0.33 1.32 0.66 2 1 C-0.54395217 4.81592825 -2.71755613 5.52329522 -7 7 C-9.4375 6.6875 -9.4375 6.6875 -11 6 C-9.9275 5.566875 -8.855 5.13375 -7.75 4.6875 C-4.83727354 3.44678487 -2.43963834 2.04929621 0 0 Z " fill="#FAF1BE" transform="translate(341,280)"/>
<path d="M0 0 C0.88336837 2.4667645 1.1312406 3.63859372 0.22265625 6.140625 C-0.16019531 6.83671875 -0.54304688 7.5328125 -0.9375 8.25 C-1.31777344 8.95640625 -1.69804688 9.6628125 -2.08984375 10.390625 C-2.39019531 10.92171875 -2.69054687 11.4528125 -3 12 C-3.88336837 9.5332355 -4.1312406 8.36140628 -3.22265625 5.859375 C-2.83980469 5.16328125 -2.45695312 4.4671875 -2.0625 3.75 C-1.68222656 3.04359375 -1.30195312 2.3371875 -0.91015625 1.609375 C-0.60980469 1.07828125 -0.30945313 0.5471875 0 0 Z " fill="#E8CF5F" transform="translate(94,174)"/>
<path d="M0 0 C0 0.66 0 1.32 0 2 C-3.20380017 4.13586678 -4.01939967 4.23132175 -7.6875 4.125 C-8.89986328 4.09792969 -8.89986328 4.09792969 -10.13671875 4.0703125 C-11.05904297 4.03550781 -11.05904297 4.03550781 -12 4 C-4.23529412 0 -4.23529412 0 0 0 Z " fill="#FDF7D2" transform="translate(412,305)"/>
<path d="M0 0 C0.8125 1.6875 0.8125 1.6875 1 4 C-1.4375 6.75 -1.4375 6.75 -4 9 C-2.25 2.25 -2.25 2.25 0 0 Z " fill="#EDCE4D" transform="translate(409,272)"/>
<path d="M0 0 C1.46726798 3.81489674 0.43336419 6.29011622 -1 10 C-1.66 10 -2.32 10 -3 10 C-2.49287967 6.28111761 -1.88391785 3.26545761 0 0 Z " fill="#E9D05C" transform="translate(189,226)"/>
<path d="M0 0 C0.33 0 0.66 0 1 0 C1 1.98 1 3.96 1 6 C0.01 6.495 0.01 6.495 -1 7 C-1.33 7.99 -1.66 8.98 -2 10 C-2.66 10 -3.32 10 -4 10 C-3.52449439 8.51965236 -3.04448784 7.04074979 -2.5625 5.5625 C-2.29566406 4.73878906 -2.02882813 3.91507813 -1.75390625 3.06640625 C-1 1 -1 1 0 0 Z " fill="#FDF6D7" transform="translate(419,188)"/>
<path d="M0 0 C0.99 0 1.98 0 3 0 C2.67 2.64 2.34 5.28 2 8 C0.4375 6.8125 0.4375 6.8125 -1 5 C-0.6875 2.3125 -0.6875 2.3125 0 0 Z " fill="#F0C834" transform="translate(97,172)"/>
<path d="M0 0 C0.66 0 1.32 0 2 0 C2.66 3.3 3.32 6.6 4 10 C2 8.375 2 8.375 0 6 C-0.25 2.75 -0.25 2.75 0 0 Z " fill="#E7CD46" transform="translate(386,272)"/>
<path d="M0 0 C0.95651196 2.58258228 1.03620881 3.8650399 0.3125 6.5625 C-1.12035293 9.22351258 -2.47085828 10.39821025 -5 12 C-3.41037341 7.96479403 -1.71767682 3.98188718 0 0 Z " fill="#FCF3CD" transform="translate(183,200)"/>
<path d="M0 0 C1.31223496 3.93670488 0.24296256 6.12488144 -1 10 C-1.33 10 -1.66 10 -2 10 C-2.1953125 3.9453125 -2.1953125 3.9453125 -2 2 C-1.34 1.34 -0.68 0.68 0 0 Z " fill="#E5CB54" transform="translate(222,296)"/>
<path d="M0 0 C1.36125 0.12375 1.36125 0.12375 2.75 0.25 C0.68243723 3.0472908 -0.39440371 3.27692273 -3.9375 3.9375 C-5.030625 4.040625 -6.12375 4.14375 -7.25 4.25 C-4.83923194 1.28290085 -3.90322061 0.30024774 0 0 Z " fill="#FEF4CF" transform="translate(260.25,242.75)"/>
<path d="M0 0 C0.66 0 1.32 0 2 0 C1.67 2.31 1.34 4.62 1 7 C0.34 7 -0.32 7 -1 7 C-1.04254356 5.00045254 -1.04080783 2.99958364 -1 1 C-0.67 0.67 -0.34 0.34 0 0 Z " fill="#FEF7D1" transform="translate(96,189)"/>
<path d="M0 0 C4.455 1.98 4.455 1.98 9 4 C5.16380575 4.95904856 3.67568464 4.91892116 0 4 C0 2.68 0 1.36 0 0 Z " fill="#FAEEBD" transform="translate(316,184)"/>
<path d="M0 0 C0.33 0.66 0.66 1.32 1 2 C0.34 2 -0.32 2 -1 2 C-2.20628008 4.33214148 -3.1654738 6.49642139 -4 9 C-4.66 9 -5.32 9 -6 9 C-4.83857315 4.64464931 -3.92300495 2.35380297 0 0 Z " fill="#E8CE67" transform="translate(321,156)"/>
<path d="M0 0 C0.33 0.99 0.66 1.98 1 3 C1.66 3.33 2.32 3.66 3 4 C-1.455 5.485 -1.455 5.485 -6 7 C-3 4 -3 4 -1 3 C-0.67 2.01 -0.34 1.02 0 0 Z " fill="#F3D26C" transform="translate(333,156)"/>
<path d="M0 0 C5.75 1.625 5.75 1.625 8 5 C6.35 5 4.7 5 3 5 C3 4.01 3 3.02 3 2 C2.01 1.67 1.02 1.34 0 1 C0 0.67 0 0.34 0 0 Z " fill="#EDC745" transform="translate(170,153)"/>
<path d="M0 0 C2.625 0.375 2.625 0.375 5 1 C4.67 1.99 4.34 2.98 4 4 C2.02 3.34 0.04 2.68 -2 2 C-1.34 1.34 -0.68 0.68 0 0 Z " fill="#F1C83F" transform="translate(289,290)"/>
<path d="M0 0 C0.66 0 1.32 0 2 0 C1.67 1.65 1.34 3.3 1 5 C-0.65 5 -2.3 5 -4 5 C-3.34 4.01 -2.68 3.02 -2 2 C-1.34 2 -0.68 2 0 2 C0 1.34 0 0.68 0 0 Z " fill="#EAD15F" transform="translate(334,256)"/>
<path d="M0 0 C0.33 0 0.66 0 1 0 C1 2.64 1 5.28 1 8 C0.34 8 -0.32 8 -1 8 C-1.33 8.66 -1.66 9.32 -2 10 C-1.54177532 6.53058454 -1.10868317 3.32604951 0 0 Z " fill="#FCF3C6" transform="translate(238,248)"/>
<path d="M0 0 C2.02054804 1.64169528 4.02043058 3.30911778 6 5 C6 5.33 6 5.66 6 6 C4.02 6 2.04 6 0 6 C0 4.02 0 2.04 0 0 Z " fill="#FCF1C7" transform="translate(132,226)"/>
<path d="M0 0 C1.32 0 2.64 0 4 0 C4 2.97 4 5.94 4 9 C3.34 9 2.68 9 2 9 C2.04125 8.071875 2.0825 7.14375 2.125 6.1875 C2.27136339 2.84190281 2.27136339 2.84190281 0 0 Z " fill="#FEF9D5" transform="translate(336,204)"/>
</svg>
